<?xml version="1.0" encoding="utf-8"?>
<!-- Generator: Adobe Illustrator 25.4.1, SVG Export Plug-In . SVG Version: 6.00 Build 0)  -->
<svg version="1.1" id="Layer_1" xmlns="http://www.w3.org/2000/svg" xmlns:xlink="http://www.w3.org/1999/xlink" x="0px" y="0px"
	 viewBox="0 0 1183 512" style="enable-background:new 0 0 1183 512;" xml:space="preserve">
<style type="text/css">
	.st0{fill:#00000B;}
	.st1{fill:#111111;}
	.st2{clip-path:url(#SVGID_00000166672928272732422700000001870775193490438047_);}
	.st3{fill-rule:evenodd;clip-rule:evenodd;fill:#00000B;}
</style>
<path class="st0" d="M549.7,251.7h20.2v102.1h54.5l-1.5,17.4h-73.1V251.7z"/>
<path class="st0" d="M668.8,299c-5.6,0-10.9,1.8-15.3,5.3c-4.6,3.5-7.5,9.1-8.6,16.7h38.9c3.5,0,5.3-1.6,5.3-4.8
	c0-4.4-1.9-8.4-5.6-12C679.7,300.7,674.8,299,668.8,299z M672.1,373c-8.8,0-16.6-1.9-23.5-5.6c-6.8-3.6-12.4-9.1-16.2-15.7
	c-3.9-6.7-5.9-14.5-5.9-23.4c0-8.9,1.9-16.6,5.8-23.2c3.8-6.5,9.2-11.8,15.7-15.5c6.7-3.7,14.2-5.6,21.9-5.6
	c7.6,0,14.2,1.7,19.8,5.2c5.3,3.2,9.8,7.7,12.9,13.1c2.9,4.9,4.5,10.4,4.5,16.1c0,5.6-1.5,9.8-4.6,12.6c-3.1,2.8-7.2,4.2-12.3,4.2
	h-44.9c1.3,7.1,4.5,12.6,9.7,16.6c5.2,4,11.4,6,18.7,6c10.1,0,18.8-3.3,26-9.9l7.9,11.6c-4.5,4.5-10,8-16,10.2
	C685.3,371.8,678.7,373,672.1,373z"/>
<path class="st0" d="M734.8,344.9c0,4.3,1.5,7.7,4.5,10c3,2.3,6.8,3.5,11.3,3.5c3.6,0,7.1-0.7,10.3-2.3c3-1.5,5.7-3.7,7.6-6.4
	c1.9-2.7,2.9-5.9,2.9-9.2v-6.8c-2.7-1.1-5.6-1.8-8.4-2.3c-3-0.5-6-0.8-9-0.8c-6.4,0-11.2,1.4-14.4,4.1c-1.5,1.2-2.8,2.8-3.6,4.6
	C735.2,341,734.8,343,734.8,344.9z M744.9,373c-8.8,0-15.9-2.4-21.5-7.2c-5.6-4.8-8.4-11.2-8.4-19.2c-0.1-5.3,1.5-10.5,4.5-14.9
	c3-4.3,7.2-7.7,12.6-10.2s11.6-3.7,18.7-3.7c3.7,0,7.4,0.3,11.1,1c3.3,0.6,6.5,1.5,9.6,2.9v-3.6c0-5.7-1.9-10.2-5.7-13.5
	c-3.8-3.3-9.1-4.9-16-4.9c-4.8,0-9.5,0.8-13.9,2.6c-4.5,1.8-8.6,4.2-12.2,7.3l-7.5-11.6c10-9,22.9-14,36.4-14c8,0,14.8,1.5,20.5,4.4
	c5.4,2.7,10,7,13.1,12.2c3.1,5.3,4.6,11.4,4.5,17.5v53.1h-17.1l-0.7-11.6c-2.6,3.8-6.3,6.9-11.1,9.5C757,371.7,751.4,373,744.9,373z
	"/>
<path class="st1" d="M844,357.3c6.7,0,12.4-2.6,17.2-7.7c4.7-5.1,7.1-12.4,7.1-21.9c0-8.8-2.2-15.6-6.5-20.6c-2-2.4-4.5-4.3-7.3-5.6
	c-2.8-1.3-5.9-1.9-9-1.9c-6.5,0-11.8,2.2-15.9,6.7c-4.1,4.4-6.1,10.1-6.1,16.9v25.1C828.8,354.3,835.6,357.3,844,357.3z
	 M804.1,335.8v-50.1h17.4l0.7,14c2.7-4.8,6.6-8.8,11.4-11.4c5-2.9,10.8-4.3,16.6-4.3c6.9-0.1,13.6,1.8,19.5,5.5
	c5.9,3.7,10.6,9,13.7,15.2c3.4,6.5,5,13.9,5,22.4c0,9.2-1.8,17.3-5.5,24.2c-3.4,6.6-8.5,12.1-14.8,16.1c-6.1,3.8-13.1,5.8-20.3,5.7
	c-4.6,0-9.1-0.7-13.4-2.2c-4.1-1.4-7.8-3.8-10.8-6.8v41.5h-19.5L804.1,335.8"/>
<path class="st0" d="M196.5,251.7l-39.7,64.2l-39.7-64.2H97v119.5h19.9v-85.8l34.1,54.6h5.7h5.7l34.1-54.6v85.8h19.9V251.7H196.5z"
	/>
<path class="st0" d="M248,344.9c0,4.3,1.5,7.7,4.5,10c3,2.3,6.8,3.5,11.3,3.5c3.6,0,7.1-0.7,10.3-2.3c3-1.5,5.7-3.7,7.6-6.4
	c1.9-2.7,2.9-5.9,2.9-9.2v-6.8c-2.7-1.1-5.6-1.8-8.5-2.3c-3-0.5-6-0.8-9-0.8c-6.4,0-11.2,1.4-14.4,4.1c-1.5,1.2-2.8,2.8-3.6,4.6
	C248.4,341,248,343,248,344.9z M258.1,373c-8.8,0-15.9-2.4-21.5-7.3c-5.6-4.8-8.4-11.2-8.4-19.2c-0.1-5.3,1.5-10.5,4.5-14.9
	c3.2-4.5,7.6-8,12.6-10.2c5.4-2.5,11.6-3.7,18.7-3.7c3.7,0,7.4,0.3,11.1,1c3.3,0.6,6.5,1.6,9.6,2.9v-3.6c0-5.7-1.9-10.2-5.7-13.5
	c-3.8-3.3-9.1-5-16-5c-4.8,0-9.5,0.8-13.9,2.6c-4.4,1.8-8.6,4.2-12.2,7.3l-7.5-11.6c10-9,22.9-14,36.4-14c8,0,14.8,1.5,20.5,4.4
	c5.4,2.7,10,7,13.1,12.2c3.1,5.3,4.6,11.4,4.5,17.5v53.1h-17.1l-0.7-11.6c-2.6,3.8-6.3,6.9-11.1,9.5
	C270.3,371.6,264.6,372.9,258.1,373z"/>
<path class="st0" d="M357.2,354.5c6.4,0,11.6-2,15.5-6.1c4-4.1,6-9.3,6-15.5v-26.3c-2.6-2.3-5.7-4-9-5.1c-3.5-1.2-7.1-1.7-10.7-1.7
	c-3.3-0.1-6.6,0.6-9.6,1.8c-3,1.3-5.8,3.2-8,5.6c-4.8,5-7.2,11.8-7.2,20.6c0,8.1,2.2,14.6,6.5,19.5c2,2.4,4.5,4.3,7.4,5.5
	C351,354,354.1,354.6,357.2,354.5z M353.9,407.1c-7.4,0-14.7-1.2-21.6-3.8c-6.5-2.4-12.6-6-17.7-10.8l7.9-12.6
	c4,3.6,8.7,6.4,13.7,8.3c5.5,2.1,11.3,3.1,17.1,3c6.9,0,12.9-1.9,17.9-5.5c5-3.7,7.5-9.2,7.5-16.5v-11.1c-2.6,3.8-6.2,6.9-10.4,8.9
	c-4.4,2.2-9.6,3.2-15.4,3.2c-6.9,0.1-13.6-1.8-19.5-5.3c-5.9-3.5-10.7-8.6-14-14.6c-3.5-6.2-5.2-13.4-5.2-21.6
	c0-8.7,1.8-16.3,5.5-23.1c3.5-6.5,8.7-12,15-15.9c6.3-3.9,13.5-5.9,20.9-5.8c4.5,0,9,0.7,13.2,2.2c4.1,1.4,7.9,3.6,11.2,6.5l0.7-7
	h17.4v82.7c0,8.8-2.1,16-6.3,21.8c-4.2,5.7-9.8,10.1-16.4,12.8C368.7,405.8,361.3,407.2,353.9,407.1z"/>
<path class="st0" d="M412.3,371.2v-85.6h19.5v85.6H412.3z M422.1,271.2c-1.7,0.1-3.3-0.2-4.9-0.8c-1.6-0.6-3-1.5-4.2-2.7
	c-2.3-2.4-3.6-5.5-3.6-8.8c0-3.3,1.3-6.4,3.6-8.8c2.5-2.2,5.7-3.5,9.1-3.5c3.3,0,6.6,1.3,9.1,3.5c2.3,2.4,3.6,5.5,3.6,8.8
	c0,3.3-1.3,6.4-3.6,8.8c-1.2,1.2-2.6,2.1-4.2,2.6C425.4,270.9,423.8,271.2,422.1,271.2z"/>
<path class="st0" d="M487.4,373c-7.8,0.1-15.5-1.7-22.5-5.3c-6.7-3.5-12.3-8.7-16.2-15.2c-4-6.6-6.1-14.6-6.1-23.9
	c0-8.8,2.1-16.5,6.2-23.2c4-6.6,9.8-12,16.6-15.7c6.1-3.3,12.9-5.2,19.9-5.6c7-0.4,13.9,0.8,20.4,3.4c5.2,2.1,9.8,5.3,13.6,9.4
	L511,309c-3-2.6-6.5-4.8-10.2-6.3c-3.7-1.5-7.6-2.2-11.5-2.2c-4.5,0-9,1.1-13,3.2c-4,2.2-7.4,5.5-9.7,9.4c-2.5,4.2-3.8,9.3-3.8,15.3
	c0,6.1,1.2,11.3,3.7,15.4c2.3,3.9,5.6,7.2,9.6,9.3c3.9,2.1,8.3,3.2,12.8,3.1c8,0,15.3-2.8,22-8.5l8.2,12.1
	c-3.8,4.1-8.5,7.3-13.7,9.5C499.8,371.8,493.6,373,487.4,373z"/>
<g>
	<defs>
		<rect id="SVGID_1_" x="793.1" y="98" width="294.9" height="318.3"/>
	</defs>
	<clipPath id="SVGID_00000025426748290293220340000006524899082897896605_">
		<use xlink:href="#SVGID_1_"  style="overflow:visible;"/>
	</clipPath>
	<g style="clip-path:url(#SVGID_00000025426748290293220340000006524899082897896605_);">
		<path class="st0" d="M930.2,280.9v135.4l20.5-11.8V292.8L930.2,280.9z"/>
		<path class="st0" d="M793.1,177.8L909.7,245v-23.7l-96-55.4L793.1,177.8z"/>
		<path class="st3" d="M950.7,233.2L950.6,98l-20.4,11.2v129.5c0,5.6,1.5,11,4.3,15.9c2.8,4.8,6.8,8.8,11.6,11.6l121.4,70l20.6-11.9
			L960.9,251l127-73.3l-20.5-11.8L950.7,233.2z"/>
	</g>
</g>
</svg>
