<?xml version="1.0" encoding="utf-8"?>
<!-- Generator: Adobe Illustrator 25.4.1, SVG Export Plug-In . SVG Version: 6.00 Build 0)  -->
<svg version="1.1" id="Layer_1" xmlns="http://www.w3.org/2000/svg" xmlns:xlink="http://www.w3.org/1999/xlink" x="0px" y="0px"
	 viewBox="0 0 1341 512" style="enable-background:new 0 0 1341 512;" xml:space="preserve">
<style type="text/css">
	.st0{fill:#00000B;}
</style>
<path class="st0" d="M744.6,155.8h26.2v132.8h70.9l-2,22.7h-95.1V155.8z"/>
<path class="st0" d="M899.5,217.4c-7.3,0-13.9,2.3-19.9,6.9c-6,4.6-9.7,11.8-11.2,21.8h50.7c4.6,0,6.9-2.1,6.9-6.2
	c0-5.8-2.4-11-7.3-15.6C913.7,219.7,907.4,217.4,899.5,217.4z M903.8,313.6c-11.4,0-21.6-2.4-30.5-7.3c-9-4.9-16-11.7-21.1-20.4
	c-5.1-8.7-7.7-18.9-7.7-30.4c0-11.6,2.5-21.6,7.6-30.2c5-8.6,11.8-15.3,20.4-20.1c8.6-4.8,18.1-7.2,28.4-7.2
	c9.9,0,18.5,2.3,25.8,6.8c7.2,4.5,12.8,10.2,16.8,17c3.9,6.8,5.9,13.8,5.9,20.9c0,7.3-2,12.7-6,16.3c-4,3.6-9.3,5.4-16,5.4h-58.4
	c1.6,9.2,5.8,16.4,12.6,21.6c6.7,5.2,14.8,7.8,24.3,7.8c13.2,0,24.4-4.3,33.8-12.9l10.2,15.1c-5.9,5.9-12.9,10.4-20.8,13.3
	C921,312.1,912.6,313.6,903.8,313.6z"/>
<path class="st0" d="M985.4,277.1c0,5.6,2,10,5.9,13c3.9,3,8.8,4.5,14.8,4.5c4.9,0,9.4-1,13.4-3c4.1-2,7.4-4.8,9.9-8.3
	c2.5-3.6,3.8-7.6,3.8-12v-8.9c-3.4-1.3-7.1-2.3-11-3c-3.9-0.7-7.8-1-11.7-1c-8.3,0-14.6,1.8-18.8,5.3
	C987.5,267.4,985.4,271.8,985.4,277.1z M998.5,313.6c-11.4,0-20.7-3.1-28-9.4c-7.3-6.3-10.9-14.6-10.9-25c0-7.2,2-13.7,5.9-19.3
	c3.9-5.6,9.4-10,16.4-13.2c7-3.2,15.1-4.8,24.3-4.8c4.9,0,9.7,0.5,14.4,1.3c4.7,0.9,8.9,2.1,12.5,3.8v-4.7c0-7.4-2.5-13.2-7.4-17.5
	c-5-4.3-11.9-6.4-20.8-6.4c-6.4,0-12.4,1.1-18.1,3.3c-5.7,2.2-11,5.4-15.9,9.6l-9.8-15.1c5.9-5.5,13-9.9,21.2-13.2
	c8.2-3.3,16.9-5,26.1-5c10.4,0,19.2,1.9,26.7,5.8c7.4,3.9,13.1,9.2,17,15.9c3.9,6.7,5.9,14.3,5.9,22.8v69.1h-22.2l-0.9-15.1
	c-3.4,4.9-8.2,9-14.4,12.3C1014.3,311.9,1006.9,313.6,998.5,313.6z"/>
<path class="st0" d="M1127.5,293.1c8.7,0,16.2-3.3,22.3-10c6.1-6.7,9.2-16.1,9.2-28.4c0-11.4-2.8-20.3-8.4-26.8s-12.7-9.7-21.1-9.7
	c-8.4,0-15.3,2.9-20.7,8.7c-5.3,5.8-8,13.1-8,22v32.7C1107.6,289.3,1116.5,293.1,1127.5,293.1z M1075.5,355.8V200.1h22.7l0.9,18.2
	c3.4-6.2,8.4-11.2,14.9-14.9c6.5-3.7,13.7-5.6,21.5-5.6c9.3,0,17.8,2.4,25.3,7.1c7.6,4.7,13.5,11.3,17.9,19.8
	c4.4,8.4,6.5,18.2,6.5,29.1c0,12-2.4,22.5-7.2,31.4c-4.8,9-11.2,15.9-19.2,20.9c-8,5-16.8,7.4-26.4,7.4c-6.2,0-12-1-17.4-2.9
	c-5.4-1.9-10.1-4.9-14.1-8.9v54L1075.5,355.8z"/>
<path class="st0" d="M285.1,155.9l-51.6,83.5L182,155.9h-26.1v155.4h25.9V199.8l44.3,71l7.5,0l7.5,0l44.4-71v111.5h25.9V155.9H285.1
	z"/>
<path class="st0" d="M352.2,277.1c0,5.6,2,10,5.9,13c3.9,3,8.8,4.5,14.8,4.5c4.9,0,9.4-1,13.4-3c4.1-2,7.4-4.8,9.9-8.3
	c2.5-3.6,3.8-7.6,3.8-12v-8.9c-3.4-1.3-7.1-2.3-11-3c-3.9-0.7-7.8-1-11.7-1c-8.3,0-14.6,1.8-18.8,5.3
	C354.4,267.4,352.2,271.8,352.2,277.1z M365.4,313.6c-11.4,0-20.7-3.1-28-9.4c-7.3-6.3-10.9-14.6-10.9-25c0-7.2,2-13.7,5.9-19.3
	c3.9-5.6,9.4-10,16.4-13.2c7-3.2,15.1-4.8,24.3-4.8c4.9,0,9.7,0.5,14.4,1.3c4.7,0.9,8.9,2.1,12.4,3.8v-4.7c0-7.4-2.5-13.2-7.4-17.5
	c-5-4.3-11.9-6.4-20.8-6.4c-6.4,0-12.4,1.1-18.1,3.3c-5.7,2.2-11,5.4-15.9,9.6l-9.8-15.1c5.9-5.5,13-9.9,21.2-13.2
	c8.2-3.3,16.9-5,26.1-5c10.4,0,19.2,1.9,26.7,5.8c7.4,3.9,13.1,9.1,17,15.9c3.9,6.7,5.9,14.3,5.9,22.8v69.1h-22.2l-0.9-15.1
	c-3.4,4.9-8.2,9-14.4,12.3C381.1,311.9,373.8,313.6,365.4,313.6z"/>
<path class="st0" d="M494.2,289.6c8.3,0,15-2.7,20.2-8c5.2-5.3,7.8-12.1,7.8-20.2v-34.2c-3.4-3-7.3-5.2-11.7-6.7
	c-4.4-1.5-9-2.2-13.9-2.2c-9,0-16.7,3.2-22.9,9.7c-6.2,6.4-9.3,15.4-9.3,26.8c0,10.5,2.8,19,8.4,25.3
	C478.5,286.4,485.6,289.6,494.2,289.6z M490,358c-9.9,0-19.3-1.6-28.1-4.9c-8.8-3.3-16.5-7.9-23-14l10.2-16.4
	c5.2,4.6,11.1,8.2,17.8,10.8c6.7,2.6,14.1,3.9,22.2,3.9c9,0,16.8-2.4,23.3-7.2c6.5-4.8,9.8-12,9.8-21.4v-14.4
	c-3.3,4.9-7.8,8.7-13.6,11.6c-5.8,2.8-12.4,4.2-20,4.2c-9.3,0-17.8-2.3-25.4-6.9c-7.6-4.6-13.7-10.9-18.2-19
	c-4.5-8.1-6.8-17.4-6.8-28.1c0-11.3,2.4-21.2,7.2-30c4.8-8.7,11.3-15.6,19.6-20.7c8.2-5,17.3-7.6,27.2-7.6c5.9,0,11.7,1,17.2,2.9
	c5.6,1.9,10.4,4.7,14.6,8.4l0.9-9.1h22.7v107.5c0,11.4-2.7,20.8-8.2,28.3c-5.5,7.5-12.6,13-21.3,16.7C509.2,356.2,499.9,358,490,358
	z"/>
<path class="st0" d="M566,311.3V200h25.3v111.3H566z M578.6,181.2c-4.7,0-8.7-1.5-11.8-4.6c-3.1-3-4.7-6.9-4.7-11.4
	c0-4.6,1.6-8.4,4.7-11.4c3.1-3,7-4.5,11.8-4.5c4.7,0,8.7,1.5,11.8,4.6c3.1,3,4.7,6.9,4.7,11.4c0,4.6-1.6,8.4-4.7,11.4
	C587.3,179.6,583.4,181.2,578.6,181.2z"/>
<path class="st0" d="M663.6,313.6c-10.7,0-20.4-2.3-29.2-6.9c-8.8-4.6-15.8-11.2-21.1-19.8c-5.3-8.6-7.9-19-7.9-31.1
	c0-11.4,2.7-21.5,8.1-30.2c5.4-8.7,12.6-15.6,21.5-20.4s18.6-7.3,29-7.3c8.4,0,16.2,1.5,23.4,4.6c7.2,3,13.1,7.1,17.7,12.3
	l-10.9,15.8c-4.1-3.6-8.6-6.3-13.2-8.2c-4.7-1.9-9.7-2.9-15-2.9c-6.1,0-11.7,1.4-16.9,4.2c-5.2,2.8-9.4,6.9-12.7,12.3
	c-3.3,5.4-4.9,12-4.9,19.9c0,8,1.6,14.7,4.8,20c3.2,5.3,7.4,9.4,12.6,12.1c5.2,2.7,10.7,4.1,16.7,4.1c10.4,0,19.9-3.7,28.7-11.1
	l10.7,15.8c-4.6,5-10.6,9.1-17.9,12.2C679.7,312,671.9,313.6,663.6,313.6z"/>
</svg>
