<svg width="1041" height="136" viewBox="0 0 1041 136" fill="none" xmlns="http://www.w3.org/2000/svg">
<path d="M46.7508 53.7709V48.2369C44.9375 47.995 43.0941 47.8438 41.1902 47.8438C18.4948 47.8438 0 66.3208 0 89.0617C0 103.003 6.95066 115.341 17.5882 122.81C17.4069 122.599 17.1953 122.387 17.014 122.175C10.5167 114.887 6.76934 105.271 6.76934 94.747C6.79956 72.3387 24.5086 54.3152 46.7508 53.7709Z" fill="#25F4EE"/>
<path d="M47.7478 113.708C57.8716 113.708 66.3031 105.482 66.6959 95.4423L66.7261 5.86961L82.9847 5.89986L82.9544 5.68817C82.622 3.84349 82.4407 1.93833 82.4407 0.00292969H60.0777L59.987 89.7571C59.6244 99.797 51.344 107.871 41.2202 107.871C38.0773 107.871 35.1157 107.085 32.4866 105.694C35.9015 110.472 41.462 113.708 47.7478 113.708Z" fill="#25F4EE"/>
<path d="M113.538 36.5346V31.182C107.282 31.182 101.48 29.3373 96.584 26.1318C100.936 31.1518 106.829 35.0831 113.538 36.5346Z" fill="#25F4EE"/>
<path d="M96.5841 26.1322C91.8093 20.6586 88.9384 13.5218 88.9384 5.71973H82.7734C84.3449 14.2476 89.573 21.5658 96.5841 26.1322Z" fill="#FE2C55"/>
<path d="M41.2203 70.068C30.8547 70.068 22.2419 78.6866 22.2419 89.0591C22.2419 96.2867 26.503 102.577 32.4866 105.722C30.2503 102.637 28.9206 98.8571 28.9206 94.7444C28.9206 84.3718 37.3521 75.9347 47.7176 75.9347C49.6517 75.9347 51.5254 76.2674 53.2782 76.8117V53.9498C51.4649 53.7078 49.6215 53.5566 47.7176 53.5566C47.3852 53.5566 47.083 53.5869 46.7506 53.5869L46.5995 53.6171L46.5693 70.8845C44.8467 70.2797 43.1544 70.068 41.2203 70.068Z" fill="#FE2C55"/>
<path d="M113.538 36.166L113.417 36.1357L113.356 53.3729C101.752 53.3729 91.0539 49.5928 82.2598 43.3028L82.2296 89.0568C82.2296 111.768 63.9161 130.093 41.1904 130.093C32.4265 130.093 24.2671 127.493 17.5884 122.805C25.1132 130.88 35.8414 135.96 47.718 135.96C70.4134 135.96 88.9082 117.483 88.9082 94.7421V49.2299C97.6721 55.52 108.431 59.2396 120.035 59.2396V36.8615C117.799 36.8615 115.623 36.6196 113.538 36.166Z" fill="#FE2C55"/>
<path d="M82.4107 89.0629V43.5508C91.1746 49.8408 101.933 53.5604 113.538 53.5604V36.172C106.829 34.7507 100.936 31.1219 96.584 26.1322C89.5729 21.5658 84.5261 14.2476 82.9244 5.71973H66.545L66.5148 95.4437C66.1522 105.484 57.8718 113.558 47.748 113.558C41.4622 113.558 35.9319 110.443 32.4868 105.725C26.5032 102.58 22.3932 96.2904 22.3932 89.0629C22.3932 78.6904 30.8247 70.2532 41.1902 70.2532C43.1243 70.2532 44.998 70.5859 46.7508 71.1302V53.5906C24.4784 54.1047 6.52759 72.3701 6.52759 94.7784C6.52759 105.605 10.7282 115.463 17.5882 122.842C24.2669 127.529 32.4264 130.311 41.1902 130.311C63.9159 130.281 82.4107 111.774 82.4107 89.0629Z" fill="white"/>
<path d="M142.186 36.2656H212.116L205.709 56.2849H187.577V130.284H164.972V56.2547L142.247 56.2849L142.186 36.2656Z" fill="white"/>
<path d="M326.621 36.2656H398.152L391.745 56.2849H372.011V130.284H349.376V56.2547L326.651 56.2849L326.621 36.2656Z" fill="white"/>
<path d="M216.377 66.1475H238.77V130.258H216.498L216.377 66.1475Z" fill="white"/>
<path d="M247.685 35.9932H270.078V79.7816L292.26 57.9781H318.975L290.9 85.2249L322.329 130.253H297.67L276.697 99.0449L270.048 105.486V130.253H247.655V35.9932H247.685Z" fill="white"/>
<path d="M484.914 35.9932H507.308V79.7816L529.489 57.9781H556.204L528.129 85.2249L559.559 130.253H534.899L513.926 99.0449L507.277 105.486V130.253H484.884V35.9932H484.914Z" fill="white"/>
<path d="M227.558 58.8251C233.784 58.8251 238.83 53.775 238.83 47.5454C238.83 41.3157 233.784 36.2656 227.558 36.2656C221.333 36.2656 216.286 41.3157 216.286 47.5454C216.286 53.775 221.333 58.8251 227.558 58.8251Z" fill="white"/>
<path d="M395.281 91.8773C395.281 71.7068 410.845 55.1652 430.639 53.6229C429.642 53.5322 428.282 53.502 427.284 53.502C406.1 53.502 388.935 70.6786 388.935 91.8773C388.935 113.076 406.1 130.253 427.284 130.253C428.282 130.253 429.642 130.192 430.639 130.132C410.875 128.589 395.281 112.078 395.281 91.8773Z" fill="#25F4EE"/>
<path d="M439.342 53.502C438.315 53.502 436.955 53.5624 435.958 53.6229C455.722 55.1652 471.285 71.7068 471.285 91.8773C471.285 112.048 455.722 128.589 435.958 130.132C436.955 130.222 438.315 130.253 439.342 130.253C460.527 130.253 477.692 113.076 477.692 91.8773C477.692 70.6786 460.527 53.502 439.342 53.502Z" fill="#FE2C55"/>
<path d="M433.298 53.502C412.114 53.502 394.949 70.6786 394.949 91.8773C394.949 113.076 412.114 130.253 433.298 130.253C454.483 130.253 471.648 113.076 471.648 91.8773C471.648 70.6786 454.483 53.502 433.298 53.502ZM433.298 110.536C422.993 110.536 414.652 102.189 414.652 91.8773C414.652 81.5653 422.993 73.2188 433.298 73.2188C443.603 73.2188 451.944 81.5653 451.944 91.8773C451.944 102.189 443.573 110.536 433.298 110.536Z" fill="white"/>
<path d="M896.298 53.9758C896.384 51.6968 896.003 49.4243 895.177 47.2982C894.352 45.1721 893.1 43.2375 891.499 41.6133C889.944 40.0535 888.086 38.8291 886.039 38.0158C883.993 37.2024 881.801 36.8174 879.6 36.8844C877.364 36.827 875.139 37.2157 873.055 38.0276C870.971 38.8395 869.069 40.0585 867.462 41.6133C865.81 43.2072 864.514 45.1329 863.66 47.2638C862.806 49.3947 862.414 51.6822 862.508 53.9758C862.421 56.2874 862.817 58.5916 863.67 60.7418C864.523 62.892 865.814 64.841 867.462 66.4646C869.062 68.0346 870.961 69.2691 873.045 70.0956C875.129 70.9221 877.358 71.324 879.6 71.2778C886.167 71.2778 892.229 68.6537 895.035 63.2933L888.468 59.7572C887.592 61.1296 886.365 62.2434 884.915 62.9834C883.464 63.7234 881.842 64.0629 880.217 63.9669C875.334 63.9669 871.671 61.1604 871.096 56.9507H896.158C896.228 55.8842 896.298 54.8459 896.298 53.9758ZM870.942 51.0711C871.587 46.7632 875.039 44.055 879.628 44.055C881.644 43.9357 883.628 44.5985 885.167 45.9054C886.707 47.2123 887.683 49.0626 887.893 51.0711H870.942Z" fill="white"/>
<path d="M918.525 19.6543C909.418 19.6543 904.493 25.2672 904.493 34.9776V37.5877H898.207V44.5056H904.493V70.5637H913.179V44.5056H920.195V37.5877H913.179V34.9776C913.179 30.2487 914.933 27.9615 918.539 27.9615H922.146V19.6543H918.525Z" fill="white"/>
<path d="M943.77 19.6543C934.663 19.6543 929.737 25.2672 929.737 34.9776V37.5877H923.465V44.5056H929.737V70.5637H938.423V44.5056H945.44V37.5877H938.423V34.9776C938.423 30.2487 940.191 27.9615 943.798 27.9615H947.404V19.6543H943.77Z" fill="white"/>
<path d="M981.588 53.9734C981.674 51.693 981.292 49.4192 980.464 47.2927C979.636 45.1662 978.38 43.2323 976.775 41.6108C975.218 40.0455 973.356 38.8177 971.303 38.0041C969.251 37.1905 967.053 36.8085 964.847 36.8819C962.609 36.8227 960.381 37.2104 958.295 38.0224C956.208 38.8343 954.305 40.0543 952.695 41.6108C951.048 43.2075 949.756 45.1342 948.905 47.2646C948.054 49.395 947.662 51.6811 947.756 53.9734C947.67 56.2836 948.064 58.5865 948.915 60.7362C949.765 62.886 951.052 64.8358 952.695 66.4622C954.298 68.0339 956.198 69.2693 958.285 70.0959C960.372 70.9224 962.603 71.3234 964.847 71.2753C971.414 71.2753 977.476 68.6512 980.283 63.2909L973.617 59.7547C972.738 61.1272 971.508 62.2407 970.056 62.9806C968.603 63.7205 966.98 64.06 965.352 63.9644C960.483 63.9644 956.807 61.1579 956.245 56.9482H981.391C981.518 55.8818 981.588 54.8434 981.588 53.9734ZM956.231 51.0687C956.863 46.7607 960.329 44.0525 964.917 44.0525C966.932 43.9367 968.915 44.6007 970.454 45.907C971.992 47.2132 972.969 49.0615 973.182 51.0687H956.231Z" fill="white"/>
<path d="M1003.08 36.8869C998.435 36.8004 993.933 38.5207 990.526 41.686C988.815 43.2336 987.461 45.1344 986.557 47.2568C985.654 49.3792 985.222 51.6726 985.292 53.9783C985.23 56.3016 985.664 58.6114 986.567 60.7532C987.47 62.8949 988.819 64.819 990.526 66.397C993.906 69.6148 998.419 71.3695 1003.08 71.2802C1005.73 71.3487 1008.35 70.7967 1010.75 69.6685C1013.14 68.5403 1015.23 66.8671 1016.86 64.7832L1009.95 59.6895C1009.17 60.7675 1008.13 61.6354 1006.93 62.2158C1005.74 62.7961 1004.41 63.0707 1003.08 63.0152C1000.68 63.03 998.354 62.1152 996.602 60.4613C995.699 59.6399 994.982 58.6356 994.498 57.5153C994.014 56.395 993.775 55.1845 993.795 53.9643C993.758 52.7726 993.992 51.588 994.478 50.4993C994.964 49.4105 995.69 48.446 996.602 47.6778C998.379 46.0766 1000.69 45.2003 1003.08 45.2221C1004.41 45.1507 1005.73 45.4096 1006.93 45.9755C1008.12 46.5414 1009.16 47.3964 1009.95 48.4636L1016.79 43.3137C1015.15 41.2645 1013.06 39.6194 1010.69 38.5052C1008.31 37.3909 1005.71 36.8373 1003.08 36.8869V36.8869Z" fill="white"/>
<path d="M1025.45 25.0141V37.6433H1019.46V44.5612H1025.45V70.5632H1033.96V44.5051H1040.97V37.5871H1033.96V24.958L1025.45 25.0141Z" fill="white"/>
<path d="M873.398 110.976C873.398 105.685 877.074 103.286 881.312 103.286C882.261 103.285 883.201 103.476 884.074 103.849C884.947 104.222 885.735 104.767 886.391 105.454C887.047 106.14 887.557 106.952 887.89 107.841C888.223 108.729 888.372 109.677 888.328 110.625V128.586H896.944V110.232C896.944 100.55 892.145 94.9085 883.669 94.9085C881.552 94.9453 879.472 95.4737 877.593 96.4521C875.699 97.2589 874.191 98.7675 873.384 100.662V77.6768H864.768V128.586H873.384L873.398 110.976Z" fill="white"/>
<path d="M927.843 112.003C927.843 113.707 927.338 115.373 926.391 116.79C925.445 118.207 924.099 119.311 922.525 119.963C920.95 120.615 919.218 120.786 917.547 120.454C915.875 120.121 914.34 119.301 913.135 118.096C911.93 116.891 911.11 115.355 910.777 113.684C910.445 112.013 910.615 110.28 911.267 108.706C911.92 107.132 913.024 105.786 914.441 104.839C915.858 103.893 917.523 103.387 919.227 103.387C920.366 103.36 921.499 103.565 922.556 103.988C923.614 104.412 924.574 105.046 925.38 105.851C926.185 106.657 926.819 107.617 927.242 108.675C927.666 109.732 927.87 110.864 927.843 112.003ZM931.379 124.422C933.037 122.817 934.339 120.883 935.202 118.744C936.065 116.605 936.469 114.309 936.389 112.003C936.47 109.706 936.066 107.418 935.203 105.288C934.339 103.158 933.037 101.233 931.379 99.6408C928.053 96.5977 923.708 94.9102 919.199 94.9102C914.691 94.9102 910.346 96.5977 907.019 99.6408C905.365 101.233 904.067 103.159 903.21 105.289C902.354 107.42 901.959 109.709 902.052 112.003C901.958 114.305 902.351 116.601 903.205 118.741C904.058 120.88 905.353 122.816 907.005 124.422C910.307 127.514 914.662 129.234 919.185 129.234C923.709 129.234 928.063 127.514 931.365 124.422H931.379Z" fill="white"/>
<path d="M962.98 113.195C962.98 118.499 959.865 120.899 955.838 120.899C952.386 120.899 949.552 118.569 949.552 113.546V95.6123H940.865V115.103C940.865 124.21 945.889 129.304 953.859 129.304C955.718 129.29 957.54 128.785 959.142 127.842C960.743 126.898 962.067 125.549 962.98 123.93V128.588H971.596V95.6123H962.98V113.195Z" fill="white"/>
<path d="M991.045 115.962C993.585 116.523 994.708 117.365 994.637 119.063C994.637 120.971 992.799 122.304 990.329 122.374C987.228 122.458 984.478 120.55 984.253 118.165H976.213C976.201 119.738 976.56 121.291 977.259 122.7C977.959 124.109 978.98 125.334 980.24 126.275C982.915 128.251 986.163 129.296 989.488 129.25C992.84 129.332 996.139 128.393 998.945 126.556C1000.22 125.778 1001.26 124.676 1001.97 123.361C1002.68 122.047 1003.02 120.568 1002.97 119.077C1002.97 116.467 1001.92 111.162 994.357 109.254L988.856 107.851C986.513 107.205 985.39 106.293 985.39 105.044C985.39 102.855 986.793 101.803 989.6 101.803C991.859 101.803 993.978 102.925 994.048 105.199H1002.24C1002.27 103.667 1001.93 102.152 1001.24 100.784C1000.55 99.4169 999.536 98.2393 998.286 97.3546C995.652 95.6124 992.546 94.7254 989.389 94.8147C986.277 94.7427 983.244 95.7938 980.844 97.7756C979.748 98.5551 978.852 99.5808 978.225 100.77C977.599 101.96 977.261 103.279 977.237 104.623C977.237 108.58 978.093 112.327 986.555 114.727L991.045 115.962Z" fill="white"/>
<path d="M1040.24 112.007C1040.33 109.727 1039.95 107.454 1039.13 105.327C1038.3 103.201 1037.05 101.266 1035.44 99.6443C1033.88 98.0779 1032.02 96.8495 1029.97 96.0359C1027.91 95.2223 1025.71 94.8409 1023.5 94.9154C1021.27 94.858 1019.04 95.2466 1016.96 96.0586C1014.87 96.8705 1012.97 98.0895 1011.36 99.6443C1009.71 101.239 1008.42 103.165 1007.57 105.296C1006.72 107.427 1006.33 109.714 1006.42 112.007C1006.34 114.317 1006.73 116.621 1007.58 118.772C1008.43 120.922 1009.72 122.871 1011.36 124.496C1012.96 126.066 1014.86 127.3 1016.95 128.127C1019.03 128.953 1021.26 129.355 1023.5 129.309C1030.08 129.309 1036.13 126.699 1038.94 121.324L1032.37 117.788C1031.49 119.16 1030.26 120.272 1028.81 121.012C1027.36 121.752 1025.73 122.092 1024.11 121.998C1019.22 121.998 1015.56 119.191 1014.98 114.982H1040.13C1040.17 113.915 1040.24 112.919 1040.24 112.007ZM1014.89 109.102C1015.53 104.794 1018.98 102.086 1023.57 102.086C1025.59 101.967 1027.57 102.629 1029.11 103.936C1030.65 105.243 1031.63 107.094 1031.84 109.102H1014.89Z" fill="white"/>
<path d="M772.309 5.80514C763.929 5.39132 755.553 6.7008 747.699 9.65262C739.845 12.6044 732.68 17.1359 726.647 22.9667C720.452 28.9041 715.518 36.0309 712.143 43.9204C708.767 51.8098 707.018 60.2994 707.002 68.8806V130.104H831.694V68.0808C831.721 52.05 825.562 36.6269 814.499 25.0254C803.436 13.4239 788.323 6.53888 772.309 5.80514V5.80514ZM740.89 70.8452V119.397H717.849V74.9426C717.849 51.7752 733.383 38.2901 752.467 38.2901H753.519H754.6H754.712C756.125 38.3802 757.531 38.5583 758.922 38.8233V38.8233C759.539 38.9356 760.128 39.0618 760.69 39.2162L761.293 39.3706L762.388 39.6793C762.963 39.8617 763.538 40.0441 764.1 40.2546C765.699 40.8491 767.251 41.562 768.744 42.3875V42.3875C769.477 42.7752 770.189 43.2015 770.877 43.6645C767.189 42.8638 763.359 42.9989 759.736 44.0574C754.22 46.041 749.451 49.6779 746.078 54.4719C742.705 59.2659 740.894 64.9837 740.89 70.8452V70.8452ZM787.085 119.397H751.611V70.8452C751.584 66.4805 753.172 62.26 756.07 58.9962C758.968 55.7324 762.971 53.656 767.309 53.1665C771.646 52.677 776.011 53.8092 779.563 56.345C783.116 58.8808 785.605 62.6411 786.551 66.9021C786.907 68.8842 787.086 70.8941 787.085 72.9079V119.397ZM820.973 119.397H797.819V72.9079C797.832 66.1527 796.333 59.4803 793.432 53.3796C790.531 47.2789 786.302 41.9045 781.055 37.6502C775.808 33.3959 769.675 30.3694 763.107 28.7927C756.538 27.2159 749.7 27.1287 743.093 28.5376C739.134 29.4282 735.344 30.949 731.867 33.042C731.779 33.089 731.677 33.1032 731.58 33.082C731.482 33.0609 731.395 33.0058 731.335 32.9266C731.274 32.8474 731.244 32.7492 731.249 32.6495C731.254 32.5498 731.294 32.4552 731.362 32.3824C734.685 29.3645 738.289 26.672 742.125 24.3419C746.05 21.8523 750.3 19.9162 754.754 18.5886V18.5886L756.424 18.1115C759.419 17.2997 762.489 16.8012 765.587 16.6241C772.67 16.0711 779.79 16.9928 786.499 19.3309C793.207 21.669 799.358 25.3727 804.563 30.2082C809.767 35.0436 813.913 40.9058 816.737 47.4244C819.562 53.9431 821.004 60.9766 820.973 68.0808V119.397Z" fill="white"/>
<rect x="632.072" width="2.4171" height="135.962" fill="white"/>
</svg>
