<svg version="1.1" id="Layer_1" xmlns="http://www.w3.org/2000/svg" xmlns:xlink="http://www.w3.org/1999/xlink" x="0px" y="0px"
	 width="100%" viewBox="0 0 4046 788" enable-background="new 0 0 4046 788" xml:space="preserve">
<path fill="#FFFFFF" opacity="1.000000" stroke="none" 
	d="
M4047.000000,229.000000 
	C4047.000000,415.647400 4047.000000,602.294800 4047.000000,789.000000 
	C2982.629150,789.000000 1918.258179,789.000000 853.443604,788.531372 
	C853.000000,734.234009 853.079346,680.405151 852.903015,626.577026 
	C852.880066,619.571411 852.178528,612.431519 850.694031,605.591980 
	C845.620544,582.217285 836.541199,560.372437 821.624451,541.610840 
	C813.620911,531.544189 804.862366,521.149109 794.262573,514.259094 
	C768.201904,497.319305 740.890808,482.300873 714.056519,466.554138 
	C699.660339,458.106171 685.231934,449.712555 670.778809,441.362335 
	C655.205078,432.364746 639.574524,423.465515 623.989502,414.487396 
	C612.951538,408.128815 601.948120,401.710510 590.464478,395.049194 
	C592.763977,393.561035 594.570435,392.261719 596.494019,391.168335 
	C608.606567,384.283112 620.796814,377.533203 632.863281,370.568390 
	C651.390503,359.874359 669.812683,348.998260 688.328674,338.284607 
	C702.212402,330.251312 716.190613,322.381470 730.096069,314.385437 
	C746.526489,304.937500 762.819580,295.245239 779.365723,286.005493 
	C795.221924,277.151062 808.875061,265.725372 819.795105,251.338089 
	C828.411194,239.986343 835.782898,227.809845 841.284851,214.490601 
	C848.061584,198.085190 852.764648,181.181259 852.876099,163.483459 
	C853.217102,109.324188 853.000000,55.161411 853.000000,1.000000 
	C1917.545166,1.000000 2982.090332,1.000000 4047.000000,1.000000 
	C4047.000000,67.037148 4047.000000,133.074966 4046.634033,199.413254 
	C4045.844238,197.819824 4045.438965,195.921555 4044.993408,194.032791 
	C4042.517578,183.539352 4038.515137,173.679916 4030.022217,166.695786 
	C4020.129883,158.560867 4007.993408,155.777588 3995.544678,155.140335 
	C3987.494141,154.728241 3979.291016,155.059967 3971.307373,156.157425 
	C3961.438965,157.513947 3952.188477,160.881012 3944.550781,167.884842 
	C3933.224609,178.271301 3930.065430,191.950241 3929.149658,206.297104 
	C3928.647461,214.165619 3929.219727,222.180664 3930.089600,230.043137 
	C3932.072998,247.965729 3940.947266,263.865479 3960.671387,269.994690 
	C3976.660645,274.963318 3993.027832,275.410522 4009.161865,271.744354 
	C4026.418945,267.823029 4038.671875,257.531281 4043.642822,239.830048 
	C4044.664062,236.192566 4045.875732,232.608582 4047.000000,229.000000 
M2136.953857,323.694427 
	C2130.104248,313.646759 2122.676758,304.228821 2113.098389,296.438690 
	C2093.939697,280.857086 2072.045410,272.223694 2047.614990,272.159515 
	C1918.293457,271.819794 1788.970581,272.000000 1659.648193,272.000000 
	C1657.873535,272.000000 1656.098999,272.000000 1654.297852,272.000000 
	C1654.297852,297.935059 1654.297852,323.330292 1654.297852,349.178040 
	C1794.650757,349.178040 1934.706299,349.178040 2074.655273,349.178040 
	C2074.655273,374.363098 2074.655273,399.092407 2074.655273,424.000000 
	C2072.823486,424.000000 2071.335693,424.000000 2069.847900,424.000000 
	C1959.523926,424.000000 1849.199707,423.911713 1738.876343,424.173309 
	C1730.363770,424.193512 1721.656006,425.930573 1713.386597,428.159302 
	C1692.378174,433.821411 1675.091797,445.884552 1661.322144,462.416687 
	C1647.985352,478.429077 1639.719727,496.923859 1637.926880,518.074402 
	C1636.584229,533.913574 1636.096924,549.667542 1638.974243,565.387146 
	C1644.354370,594.779785 1659.542725,617.784912 1684.156738,634.585449 
	C1699.072998,644.766785 1715.670410,651.722900 1733.608887,651.775879 
	C1871.596069,652.183472 2009.584961,652.000793 2147.573242,651.989197 
	C2149.000000,651.989075 2150.427002,651.826172 2152.000000,651.730408 
	C2152.000000,649.317261 2152.000000,647.328857 2152.000000,645.340393 
	C2152.000000,558.347778 2152.016846,471.355133 2151.957275,384.362518 
	C2151.953857,379.270416 2151.187012,374.183228 2151.033691,369.085968 
	C2150.546631,352.882599 2144.843750,338.342499 2136.953857,323.694427 
M2457.500000,652.000000 
	C2508.831299,652.000000 2560.163086,652.081482 2611.493652,651.892761 
	C2617.642090,651.870178 2623.929932,650.957886 2629.904785,649.464539 
	C2651.612793,644.038696 2669.878418,632.961792 2684.682373,615.935486 
	C2701.766846,596.286377 2710.584961,573.364502 2710.830566,547.710693 
	C2711.374268,490.884705 2711.071777,434.049744 2710.906494,377.218994 
	C2710.886475,370.375824 2710.302979,363.366638 2708.742188,356.725586 
	C2703.025391,332.406158 2691.192383,311.759521 2671.444824,295.830170 
	C2652.789062,280.781464 2631.434570,272.278442 2607.800293,272.201660 
	C2477.806641,271.779388 2347.810791,271.999084 2217.815674,272.014404 
	C2216.564209,272.014557 2215.312744,272.230835 2214.234131,272.330261 
	C2214.234131,444.382904 2214.234131,615.989868 2214.234131,787.735962 
	C2239.531738,787.735962 2264.594482,787.735962 2290.121094,787.735962 
	C2290.121094,742.410034 2290.121094,697.345825 2290.121094,652.000000 
	C2345.890381,652.000000 2401.195312,652.000000 2457.500000,652.000000 
M3159.500000,576.000000 
	C3056.084961,576.000000 2952.670166,576.000000 2849.328613,576.000000 
	C2849.328613,499.993713 2849.328613,424.603516 2849.328613,348.766113 
	C2989.708496,348.766113 3129.760010,348.766113 3269.631348,348.766113 
	C3269.631348,322.920776 3269.631348,297.525116 3269.631348,271.686340 
	C3129.211670,271.686340 2989.159912,271.686340 2848.825684,271.686340 
	C2848.825684,226.296234 2848.825684,181.353958 2848.825684,136.256683 
	C2823.479980,136.256683 2798.418945,136.256683 2773.000000,136.256683 
	C2773.000000,138.473236 2773.000000,140.437805 2773.000000,142.402390 
	C2773.000000,278.552124 2772.973633,414.701874 2773.084961,550.851501 
	C2773.089844,557.024536 2773.742432,563.331482 2775.107666,569.345886 
	C2781.174072,596.072144 2795.445557,617.601746 2817.912598,633.270569 
	C2835.973633,645.866638 2856.016357,652.168884 2878.397217,652.124390 
	C3006.880859,651.868835 3135.364990,652.000000 3263.849121,652.000000 
	C3265.790771,652.000000 3267.732422,652.000000 3269.704346,652.000000 
	C3269.704346,626.401184 3269.704346,601.339905 3269.704346,576.000000 
	C3233.106201,576.000000 3196.803223,576.000000 3159.500000,576.000000 
M1102.000000,357.500000 
	C1102.000000,455.589661 1102.000000,553.679321 1102.000000,651.649780 
	C1128.038208,651.649780 1153.435425,651.649780 1179.293457,651.649780 
	C1179.293457,550.570435 1179.293457,449.840790 1179.293457,349.231354 
	C1294.036133,349.231354 1408.313721,349.231354 1523.055786,349.231354 
	C1523.055786,450.191101 1523.055786,550.920776 1523.055786,651.709167 
	C1548.585083,651.709167 1573.648193,651.709167 1599.000000,651.709167 
	C1599.000000,649.451599 1599.000000,647.476013 1599.000000,645.500427 
	C1599.000000,554.835327 1599.044189,464.170105 1598.905029,373.505188 
	C1598.895264,367.172974 1598.173096,360.685059 1596.674805,354.539551 
	C1590.673096,329.921295 1577.674438,309.673279 1557.585571,294.072235 
	C1538.945923,279.596710 1517.607300,272.191223 1494.248779,272.125397 
	C1391.251343,271.835144 1288.252686,272.000000 1185.254395,272.000000 
	C1183.302856,272.000000 1181.351318,272.000000 1178.942383,272.000000 
	C1178.942383,226.474274 1178.942383,181.409454 1178.942383,136.292267 
	C1153.078735,136.292267 1127.682129,136.292267 1102.000000,136.292267 
	C1102.000000,209.889435 1102.000000,283.194733 1102.000000,357.500000 
M3878.042236,295.461761 
	C3887.749268,288.010376 3897.456299,280.559021 3907.163574,273.107666 
	C3907.029053,272.738434 3906.894775,272.369232 3906.760254,272.000000 
	C3905.516602,272.000000 3904.273193,272.000000 3903.029541,272.000000 
	C3864.033203,272.000000 3825.036865,271.954865 3786.041260,272.110626 
	C3783.667725,272.120087 3781.062012,273.348480 3778.984863,274.670166 
	C3775.697510,276.761780 3772.752197,279.395020 3769.686523,281.829620 
	C3751.788086,296.045410 3733.953613,310.342438 3715.987061,324.471375 
	C3698.042969,338.582764 3679.969971,352.530548 3661.951172,366.546875 
	C3649.982422,375.857330 3638.122559,385.312958 3626.009521,394.431946 
	C3610.650879,405.994415 3598.480225,419.853516 3592.542725,439.031982 
	C3591.923584,437.547668 3591.400391,436.445282 3590.996826,435.300720 
	C3586.853760,423.556854 3580.266602,413.047974 3571.107666,404.980347 
	C3557.909668,393.355011 3543.516113,383.091675 3529.696777,372.165619 
	C3511.767090,357.989471 3493.945801,343.676147 3475.995117,329.526550 
	C3454.472656,312.561066 3432.825439,295.753693 3411.316650,278.770905 
	C3405.533447,274.204651 3399.701172,271.659637 3391.808594,271.771576 
	C3355.319336,272.288910 3318.818848,272.000000 3282.322266,272.000000 
	C3280.732178,272.000000 3279.142090,272.000000 3277.552002,272.000000 
	C3277.381348,272.365479 3277.210693,272.730957 3277.040039,273.096436 
	C3357.147705,335.608063 3437.255615,398.119690 3517.729980,460.917419 
	C3436.121094,524.668518 3355.148926,587.921936 3273.507568,651.698364 
	C3275.084961,651.886719 3275.548096,651.990295 3276.011475,651.990417 
	C3316.174316,651.998779 3356.336914,652.020142 3396.499512,651.922791 
	C3398.099121,651.918884 3399.921875,651.091125 3401.254639,650.118286 
	C3406.645996,646.182739 3411.912109,642.073547 3417.176270,637.966675 
	C3428.497314,629.135315 3439.786621,620.263245 3451.092529,611.412476 
	C3462.778320,602.264526 3474.459473,593.111084 3486.158691,583.980408 
	C3498.759033,574.146301 3511.394043,564.355957 3523.985107,554.509827 
	C3535.680420,545.364502 3547.572266,536.449524 3558.927490,526.898254 
	C3566.197021,520.783569 3573.370850,514.272705 3579.259766,506.881531 
	C3584.818848,499.904846 3588.641357,491.544678 3592.913818,484.323853 
	C3598.534668,500.619232 3608.784912,514.627136 3623.692627,525.388000 
	C3633.343018,532.354065 3642.526123,539.971863 3651.857178,547.375061 
	C3663.759033,556.817505 3675.526855,566.430359 3687.484375,575.801636 
	C3701.849365,587.059509 3716.413574,598.062866 3730.780762,609.318054 
	C3746.971924,622.002502 3763.126221,634.737427 3779.101562,647.690857 
	C3783.333496,651.122192 3787.655762,652.147766 3793.016602,652.116333 
	C3830.511719,651.896545 3868.008789,652.000000 3905.505127,652.000000 
	C3907.197754,652.000000 3908.890381,652.000000 3911.630859,652.000000 
	C3829.349609,587.898682 3748.109863,524.608887 3666.457031,460.997131 
	C3673.511475,455.339050 3680.157227,449.879089 3686.939209,444.594177 
	C3704.685303,430.765594 3722.489502,417.011414 3740.273926,403.232208 
	C3753.546875,392.948517 3766.846191,382.699036 3780.094727,372.384338 
	C3792.451416,362.763733 3804.755615,353.075012 3817.085693,343.420105 
	C3828.770508,334.270630 3840.466797,325.135681 3852.143311,315.975494 
	C3860.619141,309.326080 3869.070801,302.646149 3878.042236,295.461761 
z"/>
<path fill="#444445" opacity="1.000000" stroke="none" 
	d="
M852.625000,1.000000 
	C853.000000,55.161411 853.217102,109.324188 852.876099,163.483459 
	C852.764648,181.181259 848.061584,198.085190 841.284851,214.490601 
	C835.782898,227.809845 828.411194,239.986343 819.795105,251.338089 
	C808.875061,265.725372 795.221924,277.151062 779.365723,286.005493 
	C762.819580,295.245239 746.526489,304.937500 730.096069,314.385437 
	C716.190613,322.381470 702.212402,330.251312 688.328674,338.284607 
	C669.812683,348.998260 651.390503,359.874359 632.863281,370.568390 
	C620.796814,377.533203 608.606567,384.283112 596.494019,391.168335 
	C594.570435,392.261719 592.763977,393.561035 590.464478,395.049194 
	C601.948120,401.710510 612.951538,408.128815 623.989502,414.487396 
	C639.574524,423.465515 655.205078,432.364746 670.778809,441.362335 
	C685.231934,449.712555 699.660339,458.106171 714.056519,466.554138 
	C740.890808,482.300873 768.201904,497.319305 794.262573,514.259094 
	C804.862366,521.149109 813.620911,531.544189 821.624451,541.610840 
	C836.541199,560.372437 845.620544,582.217285 850.694031,605.591980 
	C852.178528,612.431519 852.880066,619.571411 852.903015,626.577026 
	C853.079346,680.405151 853.000000,734.234009 853.000000,788.531372 
	C853.000000,789.000000 852.500000,789.000000 852.138794,788.658325 
	C836.670837,779.824768 821.533936,771.385925 806.464661,762.827820 
	C786.731934,751.621277 767.087585,740.258850 747.341980,729.075195 
	C719.290649,713.187378 691.231628,697.311890 663.078247,681.606140 
	C646.839722,672.547302 633.803711,659.823975 622.390625,645.542786 
	C612.883057,633.646118 604.908997,620.585754 599.095520,606.381104 
	C593.272644,592.153503 588.985535,577.567322 588.991760,561.992371 
	C589.013184,508.343262 589.000000,454.694122 589.000000,401.045013 
	C589.000000,399.376373 589.000000,397.707703 589.000000,395.531860 
	C584.393250,398.200195 580.750549,400.301697 577.115906,402.416870 
	C562.692505,410.810455 548.287170,419.235260 533.845154,427.596649 
	C520.525574,435.308197 507.309021,443.213684 493.789703,450.560120 
	C477.885071,459.202698 460.485474,463.650513 442.625061,464.752563 
	C426.050018,465.775360 409.161102,466.424591 392.899109,461.862549 
	C381.743530,458.733032 370.590485,455.098053 360.090515,450.267090 
	C349.544678,445.415070 339.802490,438.813141 329.720764,432.956390 
	C317.530212,425.874512 305.370758,418.738922 293.164001,411.685181 
	C283.981079,406.378784 274.744812,401.164673 265.000000,395.605865 
	C265.000000,398.163300 265.000000,399.971100 265.000000,401.778900 
	C265.000000,457.094147 265.000824,512.409363 264.995483,567.724609 
	C264.995331,569.219666 265.252075,570.810547 264.842010,572.194641 
	C261.315491,584.097900 258.141724,596.136536 253.934509,607.799927 
	C247.789978,624.833984 237.409607,639.498779 225.447083,652.850769 
	C214.922211,664.598267 203.228241,675.058777 189.035645,682.657593 
	C170.335144,692.669800 152.112930,703.573669 133.654434,714.040100 
	C119.836754,721.875000 105.942757,729.575439 92.132652,737.423584 
	C73.113846,748.231750 54.138462,759.116394 35.151539,769.980652 
	C24.093836,776.307861 13.050050,782.659424 1.999992,789.000000 
	C1.666663,787.671021 1.043030,786.342285 1.041825,785.013000 
	C0.992855,730.987793 1.000000,676.962585 1.378603,622.307129 
	C1.504804,619.117981 1.252402,616.558960 1.000000,614.000000 
	C1.000000,613.555542 1.000000,613.111084 1.417845,612.319946 
	C2.713250,608.320557 3.580877,604.665527 4.470035,601.015747 
	C9.513065,580.314880 18.303337,561.309692 30.598164,543.947327 
	C40.145306,530.465088 51.227760,518.468567 65.537346,509.869354 
	C74.290176,504.609436 83.198471,499.608643 92.021782,494.465485 
	C108.123108,485.079987 124.175804,475.610382 140.318527,466.296753 
	C156.458206,456.984863 172.719406,447.883667 188.861298,438.575562 
	C207.250275,427.971649 225.568008,417.244141 243.912918,406.563873 
	C250.380814,402.798309 256.837585,399.013672 263.842621,394.920349 
	C261.785309,393.608154 260.592255,392.770630 259.330444,392.054291 
	C247.214050,385.175842 235.051956,378.377228 222.969711,371.439514 
	C206.532028,362.000885 190.162491,352.443634 173.745575,342.968719 
	C159.425858,334.704254 145.069977,326.502380 130.750107,318.238159 
	C114.470490,308.842926 98.253357,299.338745 81.933090,290.014923 
	C69.317581,282.807648 56.524193,275.832153 46.559929,264.968842 
	C41.139469,259.059326 35.843338,252.969040 31.115074,246.503967 
	C17.749525,228.228943 8.396251,208.087723 3.939295,185.767960 
	C3.340492,182.769241 1.998076,179.918991 1.000001,177.000000 
	C1.000000,176.555557 1.000000,176.111099 1.372563,175.183014 
	C1.496751,172.466263 1.248375,170.233124 1.000000,168.000000 
	C1.000000,113.494591 0.988778,58.989155 1.072529,4.483875 
	C1.074392,3.271366 -0.532010,0.516284 3.594696,1.342993 
	C15.733215,8.249347 27.297808,14.776503 38.816101,21.384365 
	C57.093082,31.869577 75.306931,42.465153 93.608292,52.907471 
	C108.664177,61.498009 123.853798,69.854324 138.901566,78.458885 
	C156.487778,88.514969 173.836258,98.996010 191.566879,108.787460 
	C205.670685,116.576073 217.144562,127.438225 227.476883,139.324921 
	C239.318726,152.948212 248.887207,168.288818 255.613297,185.194000 
	C260.738739,198.076172 264.976532,211.208527 264.985687,225.277618 
	C265.020966,279.600464 265.000000,333.923340 265.000000,388.246216 
	C265.000000,389.981110 265.000000,391.716034 265.000000,393.801575 
	C266.365784,393.194000 267.291077,392.877808 268.122192,392.398346 
	C280.751648,385.112579 293.349030,377.771057 305.993713,370.511841 
	C322.295441,361.153168 338.856262,352.222778 354.895874,342.436523 
	C373.324097,331.192993 393.593292,326.657928 414.619476,325.188904 
	C425.301025,324.442566 436.134888,325.419312 446.873566,326.059387 
	C461.590485,326.936554 475.817291,330.444305 488.925323,337.120636 
	C502.921539,344.249420 516.480652,352.248444 530.124512,360.053070 
	C541.942078,366.813080 553.579224,373.887878 565.357361,380.717926 
	C573.030701,385.167694 580.813721,389.428406 589.000000,394.028015 
	C589.000000,391.622955 589.000000,389.835205 589.000000,388.047424 
	C589.000000,336.557343 589.253479,285.065399 588.875122,233.578079 
	C588.723816,212.991821 593.523560,193.777420 602.888733,175.824615 
	C608.560608,164.951736 615.824646,154.871719 622.786377,144.718719 
	C631.826477,131.534515 643.432312,120.578224 656.849915,112.238762 
	C677.200256,99.590408 698.348450,88.223015 719.193054,76.373550 
	C736.658752,66.444855 754.206055,56.659397 771.660828,46.711594 
	C792.074524,35.077419 812.451599,23.378277 832.790833,11.614488 
	C838.622742,8.241446 844.268738,4.547048 850.000000,0.999995 
	C850.750000,1.000000 851.500000,1.000000 852.625000,1.000000 
z"/>
<path fill="#FFFFFF" opacity="1.000000" stroke="none" 
	d="
M2.468651,789.000000 
	C13.050050,782.659424 24.093836,776.307861 35.151539,769.980652 
	C54.138462,759.116394 73.113846,748.231750 92.132652,737.423584 
	C105.942757,729.575439 119.836754,721.875000 133.654434,714.040100 
	C152.112930,703.573669 170.335144,692.669800 189.035645,682.657593 
	C203.228241,675.058777 214.922211,664.598267 225.447083,652.850769 
	C237.409607,639.498779 247.789978,624.833984 253.934509,607.799927 
	C258.141724,596.136536 261.315491,584.097900 264.842010,572.194641 
	C265.252075,570.810547 264.995331,569.219666 264.995483,567.724609 
	C265.000824,512.409363 265.000000,457.094147 265.000000,401.778900 
	C265.000000,399.971100 265.000000,398.163300 265.000000,395.605865 
	C274.744812,401.164673 283.981079,406.378784 293.164001,411.685181 
	C305.370758,418.738922 317.530212,425.874512 329.720764,432.956390 
	C339.802490,438.813141 349.544678,445.415070 360.090515,450.267090 
	C370.590485,455.098053 381.743530,458.733032 392.899109,461.862549 
	C409.161102,466.424591 426.050018,465.775360 442.625061,464.752563 
	C460.485474,463.650513 477.885071,459.202698 493.789703,450.560120 
	C507.309021,443.213684 520.525574,435.308197 533.845154,427.596649 
	C548.287170,419.235260 562.692505,410.810455 577.115906,402.416870 
	C580.750549,400.301697 584.393250,398.200195 589.000000,395.531860 
	C589.000000,397.707703 589.000000,399.376373 589.000000,401.045013 
	C589.000000,454.694122 589.013184,508.343262 588.991760,561.992371 
	C588.985535,577.567322 593.272644,592.153503 599.095520,606.381104 
	C604.908997,620.585754 612.883057,633.646118 622.390625,645.542786 
	C633.803711,659.823975 646.839722,672.547302 663.078247,681.606140 
	C691.231628,697.311890 719.290649,713.187378 747.341980,729.075195 
	C767.087585,740.258850 786.731934,751.621277 806.464661,762.827820 
	C821.533936,771.385925 836.670837,779.824768 851.888794,788.658325 
	C568.979126,789.000000 285.958221,789.000000 2.468651,789.000000 
z"/>
<path fill="#FFFFFF" opacity="1.000000" stroke="none" 
	d="
M849.531372,0.999995 
	C844.268738,4.547048 838.622742,8.241446 832.790833,11.614488 
	C812.451599,23.378277 792.074524,35.077419 771.660828,46.711594 
	C754.206055,56.659397 736.658752,66.444855 719.193054,76.373550 
	C698.348450,88.223015 677.200256,99.590408 656.849915,112.238762 
	C643.432312,120.578224 631.826477,131.534515 622.786377,144.718719 
	C615.824646,154.871719 608.560608,164.951736 602.888733,175.824615 
	C593.523560,193.777420 588.723816,212.991821 588.875122,233.578079 
	C589.253479,285.065399 589.000000,336.557343 589.000000,388.047424 
	C589.000000,389.835205 589.000000,391.622955 589.000000,394.028015 
	C580.813721,389.428406 573.030701,385.167694 565.357361,380.717926 
	C553.579224,373.887878 541.942078,366.813080 530.124512,360.053070 
	C516.480652,352.248444 502.921539,344.249420 488.925323,337.120636 
	C475.817291,330.444305 461.590485,326.936554 446.873566,326.059387 
	C436.134888,325.419312 425.301025,324.442566 414.619476,325.188904 
	C393.593292,326.657928 373.324097,331.192993 354.895874,342.436523 
	C338.856262,352.222778 322.295441,361.153168 305.993713,370.511841 
	C293.349030,377.771057 280.751648,385.112579 268.122192,392.398346 
	C267.291077,392.877808 266.365784,393.194000 265.000000,393.801575 
	C265.000000,391.716034 265.000000,389.981110 265.000000,388.246216 
	C265.000000,333.923340 265.020966,279.600464 264.985687,225.277618 
	C264.976532,211.208527 260.738739,198.076172 255.613297,185.194000 
	C248.887207,168.288818 239.318726,152.948212 227.476883,139.324921 
	C217.144562,127.438225 205.670685,116.576073 191.566879,108.787460 
	C173.836258,98.996010 156.487778,88.514969 138.901566,78.458885 
	C123.853798,69.854324 108.664177,61.498009 93.608292,52.907471 
	C75.306931,42.465153 57.093082,31.869577 38.816101,21.384365 
	C27.297808,14.776503 15.733215,8.249347 4.094696,1.342993 
	C285.687561,1.000000 567.375122,1.000000 849.531372,0.999995 
z"/>
<path fill="#FFFFFF" opacity="1.000000" stroke="none" 
	d="
M1.000001,177.468658 
	C1.998076,179.918991 3.340492,182.769241 3.939295,185.767960 
	C8.396251,208.087723 17.749525,228.228943 31.115074,246.503967 
	C35.843338,252.969040 41.139469,259.059326 46.559929,264.968842 
	C56.524193,275.832153 69.317581,282.807648 81.933090,290.014923 
	C98.253357,299.338745 114.470490,308.842926 130.750107,318.238159 
	C145.069977,326.502380 159.425858,334.704254 173.745575,342.968719 
	C190.162491,352.443634 206.532028,362.000885 222.969711,371.439514 
	C235.051956,378.377228 247.214050,385.175842 259.330444,392.054291 
	C260.592255,392.770630 261.785309,393.608154 263.842621,394.920349 
	C256.837585,399.013672 250.380814,402.798309 243.912918,406.563873 
	C225.568008,417.244141 207.250275,427.971649 188.861298,438.575562 
	C172.719406,447.883667 156.458206,456.984863 140.318527,466.296753 
	C124.175804,475.610382 108.123108,485.079987 92.021782,494.465485 
	C83.198471,499.608643 74.290176,504.609436 65.537346,509.869354 
	C51.227760,518.468567 40.145306,530.465088 30.598164,543.947327 
	C18.303337,561.309692 9.513065,580.314880 4.470035,601.015747 
	C3.580877,604.665527 2.713250,608.320557 1.417845,611.986572 
	C1.000000,467.312439 1.000000,322.624878 1.000001,177.468658 
z"/>
<path fill="#444445" opacity="1.000000" stroke="none" 
	d="
M4047.000000,228.531342 
	C4045.875732,232.608582 4044.664062,236.192566 4043.642822,239.830048 
	C4038.671875,257.531281 4026.418945,267.823029 4009.161865,271.744354 
	C3993.027832,275.410522 3976.660645,274.963318 3960.671387,269.994690 
	C3940.947266,263.865479 3932.072998,247.965729 3930.089600,230.043137 
	C3929.219727,222.180664 3928.647461,214.165619 3929.149658,206.297104 
	C3930.065430,191.950241 3933.224609,178.271301 3944.550781,167.884842 
	C3952.188477,160.881012 3961.438965,157.513947 3971.307373,156.157425 
	C3979.291016,155.059967 3987.494141,154.728241 3995.544678,155.140335 
	C4007.993408,155.777588 4020.129883,158.560867 4030.022217,166.695786 
	C4038.515137,173.679916 4042.517578,183.539352 4044.993408,194.032791 
	C4045.438965,195.921555 4045.844238,197.819824 4046.634033,199.856857 
	C4047.000000,209.354233 4047.000000,218.708450 4047.000000,228.531342 
M3936.000000,214.500702 
	C3936.671143,221.167084 3936.603760,228.012253 3938.165283,234.463165 
	C3941.582764,248.582535 3949.718262,258.594360 3964.280273,263.200836 
	C3977.943604,267.523041 3991.492188,267.868256 4005.332764,265.005646 
	C4020.244629,261.921387 4030.914795,253.792923 4036.013672,239.126999 
	C4041.098633,224.500381 4041.404541,209.471252 4037.681152,194.691528 
	C4033.945312,179.862106 4025.256348,169.027740 4009.528320,164.765976 
	C3996.881592,161.339111 3984.187744,160.919250 3971.548584,163.345413 
	C3957.657227,166.011963 3946.338867,172.853256 3940.714111,186.756012 
	C3937.243896,195.333023 3935.601807,204.250351 3936.000000,214.500702 
z"/>
<path fill="#FFFFFF" opacity="1.000000" stroke="none" 
	d="
M1.000000,614.444153 
	C1.252402,616.558960 1.504804,619.117981 1.378603,621.838501 
	C1.000000,619.629456 1.000000,617.258850 1.000000,614.444153 
z"/>
<path fill="#FFFFFF" opacity="1.000000" stroke="none" 
	d="
M1.000000,168.437469 
	C1.248375,170.233124 1.496751,172.466263 1.372563,174.849701 
	C1.000000,172.958313 1.000000,170.916626 1.000000,168.437469 
z"/>
<path fill="#444445" opacity="1.000000" stroke="none" 
	d="
M2137.008301,324.066223 
	C2144.843750,338.342499 2150.546631,352.882599 2151.033691,369.085968 
	C2151.187012,374.183228 2151.953857,379.270416 2151.957275,384.362518 
	C2152.016846,471.355133 2152.000000,558.347778 2152.000000,645.340393 
	C2152.000000,647.328857 2152.000000,649.317261 2152.000000,651.730408 
	C2150.427002,651.826172 2149.000000,651.989075 2147.573242,651.989197 
	C2009.584961,652.000793 1871.596069,652.183472 1733.608887,651.775879 
	C1715.670410,651.722900 1699.072998,644.766785 1684.156738,634.585449 
	C1659.542725,617.784912 1644.354370,594.779785 1638.974243,565.387146 
	C1636.096924,549.667542 1636.584229,533.913574 1637.926880,518.074402 
	C1639.719727,496.923859 1647.985352,478.429077 1661.322144,462.416687 
	C1675.091797,445.884552 1692.378174,433.821411 1713.386597,428.159302 
	C1721.656006,425.930573 1730.363770,424.193512 1738.876343,424.173309 
	C1849.199707,423.911713 1959.523926,424.000000 2069.847900,424.000000 
	C2071.335693,424.000000 2072.823486,424.000000 2074.655273,424.000000 
	C2074.655273,399.092407 2074.655273,374.363098 2074.655273,349.178040 
	C1934.706299,349.178040 1794.650757,349.178040 1654.297852,349.178040 
	C1654.297852,323.330292 1654.297852,297.935059 1654.297852,272.000000 
	C1656.098999,272.000000 1657.873535,272.000000 1659.648193,272.000000 
	C1788.970581,272.000000 1918.293457,271.819794 2047.614990,272.159515 
	C2072.045410,272.223694 2093.939697,280.857086 2113.098389,296.438690 
	C2122.676758,304.228821 2130.104248,313.646759 2137.008301,324.066223 
M1992.500000,576.000000 
	C2019.917358,576.000000 2047.334839,576.000000 2074.669678,576.000000 
	C2074.669678,550.654907 2074.669678,525.931274 2074.669678,501.309998 
	C1954.309814,501.309998 1834.280518,501.309998 1714.330322,501.309998 
	C1714.330322,526.345032 1714.330322,551.068604 1714.330322,576.000000 
	C1806.940308,576.000000 1899.220215,576.000000 1992.500000,576.000000 
z"/>
<path fill="#444445" opacity="1.000000" stroke="none" 
	d="
M2457.000000,652.000000 
	C2401.195312,652.000000 2345.890381,652.000000 2290.121094,652.000000 
	C2290.121094,697.345825 2290.121094,742.410034 2290.121094,787.735962 
	C2264.594482,787.735962 2239.531738,787.735962 2214.234131,787.735962 
	C2214.234131,615.989868 2214.234131,444.382904 2214.234131,272.330261 
	C2215.312744,272.230835 2216.564209,272.014557 2217.815674,272.014404 
	C2347.810791,271.999084 2477.806641,271.779388 2607.800293,272.201660 
	C2631.434570,272.278442 2652.789062,280.781464 2671.444824,295.830170 
	C2691.192383,311.759521 2703.025391,332.406158 2708.742188,356.725586 
	C2710.302979,363.366638 2710.886475,370.375824 2710.906494,377.218994 
	C2711.071777,434.049744 2711.374268,490.884705 2710.830566,547.710693 
	C2710.584961,573.364502 2701.766846,596.286377 2684.682373,615.935486 
	C2669.878418,632.961792 2651.612793,644.038696 2629.904785,649.464539 
	C2623.929932,650.957886 2617.642090,651.870178 2611.493652,651.892761 
	C2560.163086,652.081482 2508.831299,652.000000 2457.000000,652.000000 
M2634.000000,367.500549 
	C2634.000000,361.404572 2634.000000,355.308563 2634.000000,349.313171 
	C2518.988770,349.313171 2404.616943,349.313171 2290.319336,349.313171 
	C2290.319336,425.007294 2290.319336,500.387817 2290.319336,575.686768 
	C2405.011230,575.686768 2519.383057,575.686768 2634.000000,575.686768 
	C2634.000000,506.416077 2634.000000,437.458252 2634.000000,367.500549 
z"/>
<path fill="#444445" opacity="1.000000" stroke="none" 
	d="
M3160.000000,576.000000 
	C3196.803223,576.000000 3233.106201,576.000000 3269.704346,576.000000 
	C3269.704346,601.339905 3269.704346,626.401184 3269.704346,652.000000 
	C3267.732422,652.000000 3265.790771,652.000000 3263.849121,652.000000 
	C3135.364990,652.000000 3006.880859,651.868835 2878.397217,652.124390 
	C2856.016357,652.168884 2835.973633,645.866638 2817.912598,633.270569 
	C2795.445557,617.601746 2781.174072,596.072144 2775.107666,569.345886 
	C2773.742432,563.331482 2773.089844,557.024536 2773.084961,550.851501 
	C2772.973633,414.701874 2773.000000,278.552124 2773.000000,142.402390 
	C2773.000000,140.437805 2773.000000,138.473236 2773.000000,136.256683 
	C2798.418945,136.256683 2823.479980,136.256683 2848.825684,136.256683 
	C2848.825684,181.353958 2848.825684,226.296234 2848.825684,271.686340 
	C2989.159912,271.686340 3129.211670,271.686340 3269.631348,271.686340 
	C3269.631348,297.525116 3269.631348,322.920776 3269.631348,348.766113 
	C3129.760010,348.766113 2989.708496,348.766113 2849.328613,348.766113 
	C2849.328613,424.603516 2849.328613,499.993713 2849.328613,576.000000 
	C2952.670166,576.000000 3056.084961,576.000000 3160.000000,576.000000 
z"/>
<path fill="#444445" opacity="1.000000" stroke="none" 
	d="
M1102.000000,357.000000 
	C1102.000000,283.194733 1102.000000,209.889435 1102.000000,136.292267 
	C1127.682129,136.292267 1153.078735,136.292267 1178.942383,136.292267 
	C1178.942383,181.409454 1178.942383,226.474274 1178.942383,272.000000 
	C1181.351318,272.000000 1183.302856,272.000000 1185.254395,272.000000 
	C1288.252686,272.000000 1391.251343,271.835144 1494.248779,272.125397 
	C1517.607300,272.191223 1538.945923,279.596710 1557.585571,294.072235 
	C1577.674438,309.673279 1590.673096,329.921295 1596.674805,354.539551 
	C1598.173096,360.685059 1598.895264,367.172974 1598.905029,373.505188 
	C1599.044189,464.170105 1599.000000,554.835327 1599.000000,645.500427 
	C1599.000000,647.476013 1599.000000,649.451599 1599.000000,651.709167 
	C1573.648193,651.709167 1548.585083,651.709167 1523.055786,651.709167 
	C1523.055786,550.920776 1523.055786,450.191101 1523.055786,349.231354 
	C1408.313721,349.231354 1294.036133,349.231354 1179.293457,349.231354 
	C1179.293457,449.840790 1179.293457,550.570435 1179.293457,651.649780 
	C1153.435425,651.649780 1128.038208,651.649780 1102.000000,651.649780 
	C1102.000000,553.679321 1102.000000,455.589661 1102.000000,357.000000 
z"/>
<path fill="#444445" opacity="1.000000" stroke="none" 
	d="
M3877.787598,295.720764 
	C3869.070801,302.646149 3860.619141,309.326080 3852.143311,315.975494 
	C3840.466797,325.135681 3828.770508,334.270630 3817.085693,343.420105 
	C3804.755615,353.075012 3792.451416,362.763733 3780.094727,372.384338 
	C3766.846191,382.699036 3753.546875,392.948517 3740.273926,403.232208 
	C3722.489502,417.011414 3704.685303,430.765594 3686.939209,444.594177 
	C3680.157227,449.879089 3673.511475,455.339050 3666.457031,460.997131 
	C3748.109863,524.608887 3829.349609,587.898682 3911.630859,652.000000 
	C3908.890381,652.000000 3907.197754,652.000000 3905.505127,652.000000 
	C3868.008789,652.000000 3830.511719,651.896545 3793.016602,652.116333 
	C3787.655762,652.147766 3783.333496,651.122192 3779.101562,647.690857 
	C3763.126221,634.737427 3746.971924,622.002502 3730.780762,609.318054 
	C3716.413574,598.062866 3701.849365,587.059509 3687.484375,575.801636 
	C3675.526855,566.430359 3663.759033,556.817505 3651.857178,547.375061 
	C3642.526123,539.971863 3633.343018,532.354065 3623.692627,525.388000 
	C3608.784912,514.627136 3598.534668,500.619232 3592.913818,484.323853 
	C3588.641357,491.544678 3584.818848,499.904846 3579.259766,506.881531 
	C3573.370850,514.272705 3566.197021,520.783569 3558.927490,526.898254 
	C3547.572266,536.449524 3535.680420,545.364502 3523.985107,554.509827 
	C3511.394043,564.355957 3498.759033,574.146301 3486.158691,583.980408 
	C3474.459473,593.111084 3462.778320,602.264526 3451.092529,611.412476 
	C3439.786621,620.263245 3428.497314,629.135315 3417.176270,637.966675 
	C3411.912109,642.073547 3406.645996,646.182739 3401.254639,650.118286 
	C3399.921875,651.091125 3398.099121,651.918884 3396.499512,651.922791 
	C3356.336914,652.020142 3316.174316,651.998779 3276.011475,651.990417 
	C3275.548096,651.990295 3275.084961,651.886719 3273.507568,651.698364 
	C3355.148926,587.921936 3436.121094,524.668518 3517.729980,460.917419 
	C3437.255615,398.119690 3357.147705,335.608063 3277.040039,273.096436 
	C3277.210693,272.730957 3277.381348,272.365479 3277.552002,272.000000 
	C3279.142090,272.000000 3280.732178,272.000000 3282.322266,272.000000 
	C3318.818848,272.000000 3355.319336,272.288910 3391.808594,271.771576 
	C3399.701172,271.659637 3405.533447,274.204651 3411.316650,278.770905 
	C3432.825439,295.753693 3454.472656,312.561066 3475.995117,329.526550 
	C3493.945801,343.676147 3511.767090,357.989471 3529.696777,372.165619 
	C3543.516113,383.091675 3557.909668,393.355011 3571.107666,404.980347 
	C3580.266602,413.047974 3586.853760,423.556854 3590.996826,435.300720 
	C3591.400391,436.445282 3591.923584,437.547668 3592.542725,439.031982 
	C3598.480225,419.853516 3610.650879,405.994415 3626.009521,394.431946 
	C3638.122559,385.312958 3649.982422,375.857330 3661.951172,366.546875 
	C3679.969971,352.530548 3698.042969,338.582764 3715.987061,324.471375 
	C3733.953613,310.342438 3751.788086,296.045410 3769.686523,281.829620 
	C3772.752197,279.395020 3775.697510,276.761780 3778.984863,274.670166 
	C3781.062012,273.348480 3783.667725,272.120087 3786.041260,272.110626 
	C3825.036865,271.954865 3864.033203,272.000000 3903.029541,272.000000 
	C3904.273193,272.000000 3905.516602,272.000000 3906.760254,272.000000 
	C3906.894775,272.369232 3907.029053,272.738434 3907.163574,273.107666 
	C3897.456299,280.559021 3887.749268,288.010376 3877.787598,295.720764 
z"/>
<path fill="#FFFFFF" opacity="1.000000" stroke="none" 
	d="
M3936.000000,214.009293 
	C3935.601807,204.250351 3937.243896,195.333023 3940.714111,186.756012 
	C3946.338867,172.853256 3957.657227,166.011963 3971.548584,163.345413 
	C3984.187744,160.919250 3996.881592,161.339111 4009.528320,164.765976 
	C4025.256348,169.027740 4033.945312,179.862106 4037.681152,194.691528 
	C4041.404541,209.471252 4041.098633,224.500381 4036.013672,239.126999 
	C4030.914795,253.792923 4020.244629,261.921387 4005.332764,265.005646 
	C3991.492188,267.868256 3977.943604,267.523041 3964.280273,263.200836 
	C3949.718262,258.594360 3941.582764,248.582535 3938.165283,234.463165 
	C3936.603760,228.012253 3936.671143,221.167084 3936.000000,214.009293 
M4003.950195,220.559555 
	C4005.634277,218.516678 4008.326172,216.680115 4008.795410,214.388489 
	C4009.804199,209.461670 4009.867676,204.303757 4009.952881,199.234299 
	C4010.081299,191.620163 4007.725586,187.304718 4000.270996,186.247116 
	C3989.764160,184.756607 3979.005615,185.039398 3968.257812,184.559662 
	C3968.257812,205.249863 3968.257812,224.956650 3968.257812,244.719254 
	C3971.247314,244.719254 3973.972656,244.719254 3977.136230,244.719254 
	C3977.136230,237.380112 3977.136230,230.313202 3977.136230,222.962341 
	C3982.108398,223.677917 3987.409912,220.740311 3990.526123,226.927994 
	C3992.554688,230.956131 3996.098633,234.327530 3997.610840,238.485153 
	C4000.125488,245.398636 4004.814209,245.928513 4011.685547,244.435059 
	C4007.107666,236.936783 4002.668945,229.666687 3998.281250,222.480423 
	C4000.209961,221.891830 4001.746826,221.422867 4003.950195,220.559555 
z"/>
<path fill="#FFFFFF" opacity="1.000000" stroke="none" 
	d="
M1992.000000,576.000000 
	C1899.220215,576.000000 1806.940308,576.000000 1714.330322,576.000000 
	C1714.330322,551.068604 1714.330322,526.345032 1714.330322,501.309998 
	C1834.280518,501.309998 1954.309814,501.309998 2074.669678,501.309998 
	C2074.669678,525.931274 2074.669678,550.654907 2074.669678,576.000000 
	C2047.334839,576.000000 2019.917358,576.000000 1992.000000,576.000000 
z"/>
<path fill="#FFFFFF" opacity="1.000000" stroke="none" 
	d="
M2634.000000,368.000488 
	C2634.000000,437.458252 2634.000000,506.416077 2634.000000,575.686768 
	C2519.383057,575.686768 2405.011230,575.686768 2290.319336,575.686768 
	C2290.319336,500.387817 2290.319336,425.007294 2290.319336,349.313171 
	C2404.616943,349.313171 2518.988770,349.313171 2634.000000,349.313171 
	C2634.000000,355.308563 2634.000000,361.404572 2634.000000,368.000488 
z"/>
<path fill="#444445" opacity="1.000000" stroke="none" 
	d="
M4003.616699,220.756729 
	C4001.746826,221.422867 4000.209961,221.891830 3998.281250,222.480423 
	C4002.668945,229.666687 4007.107666,236.936783 4011.685547,244.435059 
	C4004.814209,245.928513 4000.125488,245.398636 3997.610840,238.485153 
	C3996.098633,234.327530 3992.554688,230.956131 3990.526123,226.927994 
	C3987.409912,220.740311 3982.108398,223.677917 3977.136230,222.962341 
	C3977.136230,230.313202 3977.136230,237.380112 3977.136230,244.719254 
	C3973.972656,244.719254 3971.247314,244.719254 3968.257812,244.719254 
	C3968.257812,224.956650 3968.257812,205.249863 3968.257812,184.559662 
	C3979.005615,185.039398 3989.764160,184.756607 4000.270996,186.247116 
	C4007.725586,187.304718 4010.081299,191.620163 4009.952881,199.234299 
	C4009.867676,204.303757 4009.804199,209.461670 4008.795410,214.388489 
	C4008.326172,216.680115 4005.634277,218.516678 4003.616699,220.756729 
M3999.047363,212.425903 
	C3999.583984,208.004532 4000.540283,203.582611 4000.534668,199.161911 
	C4000.529541,195.045929 3997.058838,193.362457 3993.549072,193.118027 
	C3988.157471,192.742538 3982.720703,193.019333 3977.272949,193.019333 
	C3977.272949,200.931824 3977.272949,208.306610 3977.272949,217.259705 
	C3984.702393,215.770691 3991.589844,214.390289 3999.047363,212.425903 
z"/>
<path fill="#FFFFFF" opacity="1.000000" stroke="none" 
	d="
M3998.762207,212.717896 
	C3991.589844,214.390289 3984.702393,215.770691 3977.272949,217.259705 
	C3977.272949,208.306610 3977.272949,200.931824 3977.272949,193.019333 
	C3982.720703,193.019333 3988.157471,192.742538 3993.549072,193.118027 
	C3997.058838,193.362457 4000.529541,195.045929 4000.534668,199.161911 
	C4000.540283,203.582611 3999.583984,208.004532 3998.762207,212.717896 
z"/>
</svg>