<svg version="1.1" id="Layer_1" xmlns="http://www.w3.org/2000/svg" xmlns:xlink="http://www.w3.org/1999/xlink" x="0px" y="0px"
	 width="100%" viewBox="0 0 1919 1173" enable-background="new 0 0 1919 1173" xml:space="preserve">
<path fill="#000000" opacity="1.000000" stroke="none" 
	d="
M1.000000,749.000000 
	C1.000000,499.749115 1.000000,250.498199 1.000000,1.000000 
	C174.360107,1.000000 347.720337,1.000000 521.540283,1.468657 
	C522.000000,47.597824 522.099182,93.258659 521.948853,138.918671 
	C521.892456,156.048355 524.628540,172.531784 530.958435,188.483871 
	C540.859070,213.434479 555.565613,234.918121 577.913574,250.043457 
	C592.434998,259.871704 608.150635,267.942383 623.378662,276.718170 
	C663.030579,299.569122 702.715454,322.362885 742.367126,345.214233 
	C747.047852,347.911774 751.603882,350.825745 756.759277,353.969604 
	C755.063171,355.291351 754.020691,356.319336 752.793518,357.027069 
	C738.860107,365.063202 724.871765,373.004364 710.949341,381.059509 
	C673.059143,402.981812 635.089966,424.770996 597.381226,447.001587 
	C586.011963,453.704224 574.577148,460.731506 564.623535,469.296478 
	C550.095825,481.797424 540.427307,498.262604 532.725586,515.735657 
	C526.524231,529.804810 522.257385,544.570007 522.137756,559.944336 
	C521.770691,607.103516 521.998474,654.267456 522.024170,701.429504 
	C522.025085,703.150452 522.331299,704.871277 522.578613,707.467102 
	C524.818359,706.324097 526.259094,705.653442 527.638672,704.874634 
	C538.759277,698.597046 549.862122,692.287903 560.982422,686.009766 
	C579.613281,675.491272 598.272400,665.022827 616.884033,654.470459 
	C638.233765,642.365662 659.498596,630.110168 680.889648,618.079102 
	C693.934875,610.742065 707.263672,603.607849 717.111755,592.131958 
	C726.137756,581.613953 734.958069,570.682190 742.153564,558.886414 
	C752.901855,541.266479 759.138062,521.947876 759.055603,500.857880 
	C758.875793,454.863068 758.992615,408.867035 759.024963,362.871552 
	C759.026489,360.682404 759.380676,358.493500 759.580444,356.191864 
	C760.809998,356.404449 761.366333,356.359894 761.764404,356.589630 
	C781.871216,368.193024 801.857300,380.011047 822.100281,391.371246 
	C833.932983,398.011719 845.840088,404.716797 858.312012,409.973267 
	C875.451416,417.196899 893.838196,417.578583 912.208252,417.028473 
	C929.344482,416.515289 945.996704,413.527405 961.092163,405.297882 
	C983.800598,392.918091 1006.092468,379.773987 1028.558960,366.950531 
	C1035.085449,363.225342 1041.603516,359.485504 1049.000000,355.251831 
	C1049.000000,358.707245 1049.000000,360.851898 1049.000000,362.996552 
	C1049.000122,409.658691 1048.950806,456.320923 1049.070923,502.982758 
	C1049.083984,508.084625 1049.773926,513.237000 1050.666138,518.274475 
	C1053.265137,532.946350 1058.747559,546.574463 1066.186035,559.452820 
	C1077.451660,578.957092 1091.338623,596.301208 1110.677368,608.162415 
	C1130.173462,620.120178 1150.418701,630.854980 1170.312378,642.166443 
	C1203.756592,661.182739 1237.178101,680.238831 1270.620605,699.257812 
	C1275.288574,701.912476 1280.021973,704.452271 1285.571777,707.512146 
	C1285.753418,704.193970 1285.982910,701.944397 1285.983887,699.694702 
	C1286.005249,655.698975 1285.709961,611.700684 1286.106812,567.708557 
	C1286.352173,540.515076 1278.109619,516.148621 1263.729736,493.569824 
	C1254.084473,478.425201 1242.227905,465.213806 1226.653564,455.971619 
	C1208.116211,444.971161 1189.243042,434.538147 1170.576172,423.754059 
	C1136.835083,404.261536 1103.134399,384.699341 1069.429199,365.144958 
	C1063.497437,361.703613 1057.626221,358.158020 1050.854492,354.143250 
	C1064.162476,346.399933 1076.428467,339.209473 1088.745728,332.108093 
	C1109.575317,320.099121 1130.443115,308.156464 1151.284180,296.167236 
	C1172.267944,284.095886 1193.093628,271.740082 1214.261353,260.000671 
	C1231.151001,250.633865 1246.418701,239.558365 1257.781982,223.687668 
	C1275.384155,199.103165 1286.310059,172.354218 1286.088013,141.485703 
	C1285.751343,94.659340 1286.000000,47.828777 1286.000000,1.000000 
	C1497.270752,1.000000 1708.541504,1.000000 1920.000000,1.000000 
	C1920.000000,261.693481 1920.000000,522.387024 1919.636230,783.524780 
	C1918.827026,783.315552 1918.201904,782.721619 1917.963379,781.999939 
	C1914.328003,771.005310 1906.501343,764.997986 1895.405640,762.660767 
	C1885.010132,760.471069 1874.736572,760.668274 1864.551270,763.738953 
	C1854.916504,766.643555 1848.638184,772.939758 1845.728149,782.569885 
	C1842.291260,793.943298 1842.228149,805.455444 1845.226807,816.844360 
	C1847.474609,825.381775 1852.596313,831.926392 1860.996338,835.497314 
	C1870.957642,839.732056 1881.404297,839.772400 1891.815186,838.487732 
	C1904.366943,836.938904 1913.946045,830.998474 1918.195679,818.301453 
	C1918.386719,817.730286 1919.380249,817.427734 1920.000000,817.000000 
	C1920.000000,935.966736 1920.000000,1054.933472 1920.000000,1174.000000 
	C1538.639771,1174.000000 1157.279663,1174.000000 775.459717,1173.531372 
	C775.000305,1146.403564 774.995667,1119.744263 775.004456,1093.085083 
	C775.006775,1086.024780 775.025818,1086.004883 782.132446,1086.004272 
	C848.446777,1085.998657 914.761108,1086.033813 981.075439,1085.978638 
	C999.907349,1085.962891 1016.178284,1079.049561 1029.415161,1065.911133 
	C1043.361816,1052.068481 1049.805664,1034.672607 1049.933472,1015.170288 
	C1050.163940,980.015198 1050.149536,944.856567 1049.923584,909.701416 
	C1049.836426,896.131287 1047.122314,883.098633 1039.724854,871.301697 
	C1026.460205,850.148071 1007.441895,838.269714 982.550842,838.150818 
	C899.409912,837.753418 816.265869,838.000061 733.123047,838.001892 
	C731.623657,838.001892 729.909912,837.574402 728.680786,838.157288 
	C727.246460,838.837463 725.666626,840.217834 725.184143,841.644226 
	C724.575867,843.442322 725.001709,845.594238 725.001709,847.593506 
	C724.999756,956.395691 725.000000,1065.197876 725.000000,1174.000000 
	C483.666656,1174.000000 242.333313,1174.000000 1.000000,1174.000000 
	C1.000000,1144.889526 1.000000,1115.904419 1.468657,1086.459717 
	C15.933506,1085.999634 29.929703,1086.007202 43.925884,1085.995605 
	C50.975620,1085.989868 50.995232,1085.973999 50.995922,1078.856323 
	C51.001862,1017.706299 50.998302,956.556335 51.003155,895.406311 
	C51.003738,888.020752 51.019093,888.003845 58.311310,888.003357 
	C127.625786,887.998718 196.940262,887.987427 266.254730,888.014832 
	C276.012268,888.018677 274.978790,887.078308 274.984039,896.971558 
	C275.016266,957.788330 274.997620,1018.605103 275.006714,1079.421875 
	C275.007690,1085.962036 275.040039,1085.984375 281.639923,1085.993652 
	C293.803253,1086.010742 305.966644,1086.008667 318.130005,1085.994751 
	C324.968781,1085.986938 324.993866,1085.969238 324.994751,1079.152100 
	C325.002136,1022.167603 324.937073,965.182983 325.046478,908.198669 
	C325.071991,894.912598 322.156921,882.524597 315.058624,871.295410 
	C301.680634,850.132019 282.549011,838.223083 257.348755,838.105286 
	C190.701675,837.793701 124.052071,837.949280 57.403870,838.097778 
	C52.432217,838.108826 50.838299,836.808899 50.888626,831.684387 
	C51.137325,806.360413 51.006718,781.032593 50.993923,755.706177 
	C50.990555,749.042358 50.964470,749.015381 44.488159,749.007324 
	C29.992126,748.989197 15.496056,749.000610 1.000000,749.000000 
M685.000000,962.500000 
	C685.000000,947.503113 685.091919,932.505493 684.960510,917.509766 
	C684.896606,910.214661 684.947937,902.855469 684.031006,895.641724 
	C680.002014,863.944641 649.712708,837.619812 616.266052,837.894043 
	C566.445190,838.302551 516.618469,837.999756 466.794281,838.000183 
	C433.633698,838.000427 400.472382,838.108765 367.313232,837.890015 
	C362.186493,837.856140 360.753479,839.425415 360.897003,844.409729 
	C361.227753,855.898010 360.950043,867.402771 361.015259,878.900269 
	C361.072937,889.070496 359.929993,887.979065 370.118500,887.982727 
	C456.269379,888.013611 542.420349,888.038513 628.571045,887.905640 
	C633.501953,887.898071 635.284851,889.114136 635.113525,894.294250 
	C634.739136,905.613098 635.039429,916.953125 634.987549,928.284119 
	C634.943665,937.873291 635.884583,936.982605 626.497498,936.986023 
	C556.010376,937.011719 485.523041,936.900330 415.036377,937.074036 
	C398.401031,937.114990 383.952393,943.752747 371.821594,954.828186 
	C358.709808,966.799194 351.480347,981.813538 349.741180,999.711670 
	C347.898041,1018.679443 349.366608,1036.868042 359.771576,1053.349365 
	C372.743683,1073.896851 391.692261,1085.645996 415.851471,1085.791382 
	C503.332275,1086.317993 590.818176,1086.000732 678.302185,1085.993896 
	C684.972717,1085.993408 684.993896,1085.963989 684.995300,1078.978882 
	C685.003052,1040.485962 684.999634,1001.992981 685.000000,962.500000 
M1140.000000,969.500000 
	C1140.000122,944.836182 1139.996338,920.172424 1140.002808,895.508606 
	C1140.004761,888.014404 1140.017456,888.002563 1147.710815,888.002319 
	C1233.366455,887.999268 1319.022095,888.000305 1404.677734,887.998779 
	C1406.510742,887.998718 1408.347290,887.903320 1410.175903,887.988586 
	C1412.960693,888.118530 1414.010620,886.825989 1413.998901,884.102234 
	C1413.937988,869.937866 1414.050903,855.771606 1413.805054,841.611145 
	C1413.784058,840.401306 1411.768433,838.663269 1410.339111,838.182678 
	C1408.538574,837.577087 1406.387939,838.001648 1404.388306,838.001587 
	C1318.399414,837.998962 1232.410400,837.960999 1146.421631,838.095215 
	C1141.478027,838.102905 1139.835571,836.854065 1139.886963,831.700623 
	C1140.139893,806.373108 1140.006836,781.041626 1139.993896,755.711548 
	C1139.990601,749.042542 1139.964600,749.017639 1133.491821,749.007263 
	C1121.493408,748.988037 1109.494873,748.994812 1097.496460,749.002808 
	C1090.014160,749.007812 1090.002441,749.017822 1090.002075,756.722961 
	C1089.999268,844.878235 1089.999634,933.033569 1090.003784,1021.188843 
	C1090.003784,1022.854675 1089.899048,1024.540771 1090.109375,1026.183350 
	C1094.400879,1059.701782 1124.212402,1085.982422 1157.918945,1085.999268 
	C1167.750977,1086.004150 1177.583008,1086.000000 1187.415039,1086.000000 
	C1260.738892,1085.999390 1334.062866,1086.001831 1407.386719,1085.993652 
	C1413.960815,1085.992920 1413.983521,1085.961060 1413.993530,1079.393555 
	C1414.011475,1067.561768 1414.003784,1055.729858 1413.998169,1043.898071 
	C1413.994507,1036.012939 1413.987915,1036.002197 1406.178711,1036.001953 
	C1319.856445,1035.999023 1233.534302,1036.001221 1147.212036,1035.996338 
	C1140.027588,1035.995972 1140.008667,1035.977295 1140.004761,1028.992432 
	C1139.994019,1009.494934 1140.000366,989.997498 1140.000000,969.500000 
M1564.540894,952.988342 
	C1567.753784,955.463379 1570.966797,957.938416 1575.012207,961.054688 
	C1521.709473,1002.718689 1469.293579,1043.689331 1416.067139,1085.293701 
	C1418.031494,1085.703003 1418.650757,1085.944580 1419.270142,1085.945190 
	C1444.767578,1085.969849 1470.265137,1086.002075 1495.762207,1085.905151 
	C1497.257690,1085.899536 1498.980591,1085.136719 1500.205688,1084.208740 
	C1509.050781,1077.508789 1517.819458,1070.707153 1526.565796,1063.878174 
	C1549.279785,1046.143311 1572.035156,1028.460205 1594.628784,1010.573181 
	C1601.214600,1005.359253 1607.760254,999.948608 1613.486328,993.842346 
	C1617.789795,989.252930 1620.753052,983.406982 1623.775146,978.919006 
	C1628.600830,985.162476 1632.830444,992.470764 1638.769409,997.914490 
	C1649.249512,1007.520935 1660.691284,1016.092712 1671.874756,1024.914795 
	C1695.930908,1043.891479 1720.088501,1062.739868 1744.177734,1081.674927 
	C1747.474976,1084.266602 1750.658569,1086.179199 1755.299316,1086.125244 
	C1778.793945,1085.851318 1802.293579,1086.006348 1825.791382,1085.984009 
	C1827.457275,1085.982422 1829.123047,1085.764771 1830.788818,1085.647583 
	C1830.886597,1085.229736 1830.984375,1084.812012 1831.082031,1084.394287 
	C1778.505371,1043.403931 1725.928589,1002.413696 1672.831421,961.017700 
	C1724.951904,920.316467 1776.626099,879.963562 1829.412598,838.742126 
	C1826.895142,838.294067 1826.129761,838.039490 1825.364014,838.038818 
	C1800.366333,838.017151 1775.368530,837.968933 1750.371704,838.117249 
	C1748.405762,838.128906 1746.139526,839.130249 1744.536133,840.356201 
	C1733.351685,848.907898 1722.292847,857.624207 1711.217896,866.318665 
	C1691.287231,881.965576 1671.435791,897.714417 1651.427002,913.260803 
	C1640.619507,921.657959 1630.055664,930.162476 1624.909180,943.485962 
	C1624.831055,943.688171 1624.366577,943.741089 1623.637939,944.055420 
	C1622.453491,941.773132 1621.468506,939.314453 1620.009521,937.179993 
	C1616.934937,932.682556 1614.310303,927.527710 1610.261719,924.111145 
	C1597.609375,913.433655 1584.396729,903.418823 1571.371704,893.184509 
	C1550.145142,876.506042 1528.960571,859.772705 1507.583496,843.288940 
	C1504.468872,840.887146 1500.415405,838.306152 1496.751587,838.238770 
	C1472.428711,837.791443 1448.093628,837.998474 1423.762573,838.027466 
	C1422.447754,838.029053 1421.133301,838.343140 1418.683105,838.657410 
	C1421.256592,840.703308 1422.785156,841.937012 1424.333008,843.145996 
	C1438.431885,854.158447 1452.540649,865.158508 1466.634155,876.177917 
	C1486.335083,891.581543 1506.032959,906.989380 1525.718262,922.413269 
	C1538.496948,932.425598 1551.250854,942.469666 1564.540894,952.988342 
z"/>
<path fill="#444444" opacity="1.000000" stroke="none" 
	d="
M1285.600098,1.000000 
	C1286.000000,47.828777 1285.751343,94.659340 1286.088013,141.485703 
	C1286.310059,172.354218 1275.384155,199.103165 1257.781982,223.687668 
	C1246.418701,239.558365 1231.151001,250.633865 1214.261353,260.000671 
	C1193.093628,271.740082 1172.267944,284.095886 1151.284180,296.167236 
	C1130.443115,308.156464 1109.575317,320.099121 1088.745728,332.108093 
	C1076.428467,339.209473 1064.162476,346.399933 1050.854492,354.143250 
	C1057.626221,358.158020 1063.497437,361.703613 1069.429199,365.144958 
	C1103.134399,384.699341 1136.835083,404.261536 1170.576172,423.754059 
	C1189.243042,434.538147 1208.116211,444.971161 1226.653564,455.971619 
	C1242.227905,465.213806 1254.084473,478.425201 1263.729736,493.569824 
	C1278.109619,516.148621 1286.352173,540.515076 1286.106812,567.708557 
	C1285.709961,611.700684 1286.005249,655.698975 1285.983887,699.694702 
	C1285.982910,701.944397 1285.753418,704.193970 1285.571777,707.512146 
	C1280.021973,704.452271 1275.288574,701.912476 1270.620605,699.257812 
	C1237.178101,680.238831 1203.756592,661.182739 1170.312378,642.166443 
	C1150.418701,630.854980 1130.173462,620.120178 1110.677368,608.162415 
	C1091.338623,596.301208 1077.451660,578.957092 1066.186035,559.452820 
	C1058.747559,546.574463 1053.265137,532.946350 1050.666138,518.274475 
	C1049.773926,513.237000 1049.083984,508.084625 1049.070923,502.982758 
	C1048.950806,456.320923 1049.000122,409.658691 1049.000000,362.996552 
	C1049.000000,360.851898 1049.000000,358.707245 1049.000000,355.251831 
	C1041.603516,359.485504 1035.085449,363.225342 1028.558960,366.950531 
	C1006.092468,379.773987 983.800598,392.918091 961.092163,405.297882 
	C945.996704,413.527405 929.344482,416.515289 912.208252,417.028473 
	C893.838196,417.578583 875.451416,417.196899 858.312012,409.973267 
	C845.840088,404.716797 833.932983,398.011719 822.100281,391.371246 
	C801.857300,380.011047 781.871216,368.193024 761.764404,356.589630 
	C761.366333,356.359894 760.809998,356.404449 759.580444,356.191864 
	C759.380676,358.493500 759.026489,360.682404 759.024963,362.871552 
	C758.992615,408.867035 758.875793,454.863068 759.055603,500.857880 
	C759.138062,521.947876 752.901855,541.266479 742.153564,558.886414 
	C734.958069,570.682190 726.137756,581.613953 717.111755,592.131958 
	C707.263672,603.607849 693.934875,610.742065 680.889648,618.079102 
	C659.498596,630.110168 638.233765,642.365662 616.884033,654.470459 
	C598.272400,665.022827 579.613281,675.491272 560.982422,686.009766 
	C549.862122,692.287903 538.759277,698.597046 527.638672,704.874634 
	C526.259094,705.653442 524.818359,706.324097 522.578613,707.467102 
	C522.331299,704.871277 522.025085,703.150452 522.024170,701.429504 
	C521.998474,654.267456 521.770691,607.103516 522.137756,559.944336 
	C522.257385,544.570007 526.524231,529.804810 532.725586,515.735657 
	C540.427307,498.262604 550.095825,481.797424 564.623535,469.296478 
	C574.577148,460.731506 586.011963,453.704224 597.381226,447.001587 
	C635.089966,424.770996 673.059143,402.981812 710.949341,381.059509 
	C724.871765,373.004364 738.860107,365.063202 752.793518,357.027069 
	C754.020691,356.319336 755.063171,355.291351 756.759277,353.969604 
	C751.603882,350.825745 747.047852,347.911774 742.367126,345.214233 
	C702.715454,322.362885 663.030579,299.569122 623.378662,276.718170 
	C608.150635,267.942383 592.434998,259.871704 577.913574,250.043457 
	C555.565613,234.918121 540.859070,213.434479 530.958435,188.483871 
	C524.628540,172.531784 521.892456,156.048355 521.948853,138.918671 
	C522.099182,93.258659 522.000000,47.597824 522.000000,1.468657 
	C523.388916,1.000000 524.777771,1.000000 526.553040,1.356656 
	C532.923401,5.461709 538.791077,9.413187 544.912781,12.921329 
	C565.195312,24.544554 585.600891,35.952908 605.900696,47.546349 
	C632.675293,62.837612 659.184998,78.607330 686.207520,93.444801 
	C705.728699,104.163414 721.453918,118.692032 734.135681,136.718170 
	C751.229248,161.015320 759.948242,187.605087 759.250610,217.818085 
	C758.262573,260.612122 758.994690,303.445984 759.018311,346.262817 
	C759.019470,348.305878 759.278320,350.348816 759.466492,353.117889 
	C784.392334,338.735870 808.832275,325.376373 832.513916,310.786163 
	C863.580750,291.645966 896.929749,287.772125 932.057800,293.576111 
	C947.433655,296.116577 961.446411,302.262238 974.826904,310.284607 
	C997.287476,323.750946 1020.053589,336.708252 1042.724487,349.822235 
	C1044.449341,350.820007 1046.437622,351.362274 1049.000000,352.397705 
	C1049.000000,349.292480 1049.000000,347.146515 1049.000000,345.000549 
	C1049.000000,301.850494 1049.159302,258.699585 1048.923462,215.550827 
	C1048.825806,197.715439 1051.453369,180.653091 1058.741943,164.218323 
	C1070.024170,138.778259 1085.751099,116.752159 1109.200928,101.553207 
	C1128.926270,88.768265 1149.743774,77.656807 1170.179443,65.982269 
	C1204.729248,46.244469 1239.373657,26.672375 1273.928955,6.943972 
	C1276.811035,5.298551 1279.318481,2.996822 1282.000000,1.000002 
	C1283.066650,1.000000 1284.133423,1.000000 1285.600098,1.000000 
z"/>
<path fill="#000000" opacity="1.000000" stroke="none" 
	d="
M1281.531372,1.000002 
	C1279.318481,2.996822 1276.811035,5.298551 1273.928955,6.943972 
	C1239.373657,26.672375 1204.729248,46.244469 1170.179443,65.982269 
	C1149.743774,77.656807 1128.926270,88.768265 1109.200928,101.553207 
	C1085.751099,116.752159 1070.024170,138.778259 1058.741943,164.218323 
	C1051.453369,180.653091 1048.825806,197.715439 1048.923462,215.550827 
	C1049.159302,258.699585 1049.000000,301.850494 1049.000000,345.000549 
	C1049.000000,347.146515 1049.000000,349.292480 1049.000000,352.397705 
	C1046.437622,351.362274 1044.449341,350.820007 1042.724487,349.822235 
	C1020.053589,336.708252 997.287476,323.750946 974.826904,310.284607 
	C961.446411,302.262238 947.433655,296.116577 932.057800,293.576111 
	C896.929749,287.772125 863.580750,291.645966 832.513916,310.786163 
	C808.832275,325.376373 784.392334,338.735870 759.466492,353.117889 
	C759.278320,350.348816 759.019470,348.305878 759.018311,346.262817 
	C758.994690,303.445984 758.262573,260.612122 759.250610,217.818085 
	C759.948242,187.605087 751.229248,161.015320 734.135681,136.718170 
	C721.453918,118.692032 705.728699,104.163414 686.207520,93.444801 
	C659.184998,78.607330 632.675293,62.837612 605.900696,47.546349 
	C585.600891,35.952908 565.195312,24.544554 544.912781,12.921329 
	C538.791077,9.413187 532.923401,5.461709 526.969727,1.356656 
	C778.354248,1.000000 1029.708496,1.000000 1281.531372,1.000002 
z"/>
<path fill="#444444" opacity="1.000000" stroke="none" 
	d="
M725.468628,1174.000000 
	C725.000000,1065.197876 724.999756,956.395691 725.001709,847.593506 
	C725.001709,845.594238 724.575867,843.442322 725.184143,841.644226 
	C725.666626,840.217834 727.246460,838.837463 728.680786,838.157288 
	C729.909912,837.574402 731.623657,838.001892 733.123047,838.001892 
	C816.265869,838.000061 899.409912,837.753418 982.550842,838.150818 
	C1007.441895,838.269714 1026.460205,850.148071 1039.724854,871.301697 
	C1047.122314,883.098633 1049.836426,896.131287 1049.923584,909.701416 
	C1050.149536,944.856567 1050.163940,980.015198 1049.933472,1015.170288 
	C1049.805664,1034.672607 1043.361816,1052.068481 1029.415161,1065.911133 
	C1016.178284,1079.049561 999.907349,1085.962891 981.075439,1085.978638 
	C914.761108,1086.033813 848.446777,1085.998657 782.132446,1086.004272 
	C775.025818,1086.004883 775.006775,1086.024780 775.004456,1093.085083 
	C774.995667,1119.744263 775.000305,1146.403564 775.000000,1173.531372 
	C758.645752,1174.000000 742.291565,1174.000000 725.468628,1174.000000 
M780.717163,1035.995850 
	C851.352295,1035.996460 921.987366,1035.982666 992.622498,1036.037109 
	C996.493774,1036.040161 999.128906,1035.997314 999.106018,1030.660400 
	C998.909241,984.848389 998.963135,939.035156 999.047363,893.222473 
	C999.054260,889.487915 998.085999,887.929810 994.004883,887.935669 
	C922.703613,888.037537 851.402100,888.033142 780.100708,887.943481 
	C776.183533,887.938538 774.935059,889.223877 774.943665,893.116760 
	C775.044983,939.096008 775.038269,985.075562 774.953918,1031.054810 
	C774.947327,1034.650635 775.993530,1036.461548 780.717163,1035.995850 
z"/>
<path fill="#444444" opacity="1.000000" stroke="none" 
	d="
M1.000000,749.468628 
	C15.496056,749.000610 29.992126,748.989197 44.488159,749.007324 
	C50.964470,749.015381 50.990555,749.042358 50.993923,755.706177 
	C51.006718,781.032593 51.137325,806.360413 50.888626,831.684387 
	C50.838299,836.808899 52.432217,838.108826 57.403870,838.097778 
	C124.052071,837.949280 190.701675,837.793701 257.348755,838.105286 
	C282.549011,838.223083 301.680634,850.132019 315.058624,871.295410 
	C322.156921,882.524597 325.071991,894.912598 325.046478,908.198669 
	C324.937073,965.182983 325.002136,1022.167603 324.994751,1079.152100 
	C324.993866,1085.969238 324.968781,1085.986938 318.130005,1085.994751 
	C305.966644,1086.008667 293.803253,1086.010742 281.639923,1085.993652 
	C275.040039,1085.984375 275.007690,1085.962036 275.006714,1079.421875 
	C274.997620,1018.605103 275.016266,957.788330 274.984039,896.971558 
	C274.978790,887.078308 276.012268,888.018677 266.254730,888.014832 
	C196.940262,887.987427 127.625786,887.998718 58.311310,888.003357 
	C51.019093,888.003845 51.003738,888.020752 51.003155,895.406311 
	C50.998302,956.556335 51.001862,1017.706299 50.995922,1078.856323 
	C50.995232,1085.973999 50.975620,1085.989868 43.925884,1085.995605 
	C29.929703,1086.007202 15.933506,1085.999634 1.468657,1086.000000 
	C1.000000,973.979126 1.000000,861.958191 1.000000,749.468628 
z"/>
<path fill="#444444" opacity="1.000000" stroke="none" 
	d="
M1920.000000,816.531372 
	C1919.380249,817.427734 1918.386719,817.730286 1918.195679,818.301453 
	C1913.946045,830.998474 1904.366943,836.938904 1891.815186,838.487732 
	C1881.404297,839.772400 1870.957642,839.732056 1860.996338,835.497314 
	C1852.596313,831.926392 1847.474609,825.381775 1845.226807,816.844360 
	C1842.228149,805.455444 1842.291260,793.943298 1845.728149,782.569885 
	C1848.638184,772.939758 1854.916504,766.643555 1864.551270,763.738953 
	C1874.736572,760.668274 1885.010132,760.471069 1895.405640,762.660767 
	C1906.501343,764.997986 1914.328003,771.005310 1917.963379,781.999939 
	C1918.201904,782.721619 1918.827026,783.315552 1919.636230,783.984497 
	C1920.000000,794.687561 1920.000000,805.375122 1920.000000,816.531372 
M1914.596680,811.751343 
	C1914.710938,804.853760 1915.583008,797.865173 1914.768188,791.079163 
	C1913.425903,779.901428 1907.535278,771.641052 1896.241577,768.211487 
	C1887.668457,765.608093 1878.941284,765.367798 1870.252319,767.444580 
	C1859.519287,770.009766 1852.564941,776.447144 1849.710815,787.425720 
	C1847.207642,797.054077 1847.594360,806.499634 1850.527100,815.803650 
	C1853.456543,825.097656 1860.105103,830.921753 1869.593262,832.816772 
	C1874.737915,833.844299 1880.138062,834.053528 1885.404907,833.920349 
	C1900.533569,833.537964 1910.571167,827.620239 1914.596680,811.751343 
z"/>
<path fill="#444444" opacity="1.000000" stroke="none" 
	d="
M685.000000,963.000000 
	C684.999634,1001.992981 685.003052,1040.485962 684.995300,1078.978882 
	C684.993896,1085.963989 684.972717,1085.993408 678.302185,1085.993896 
	C590.818176,1086.000732 503.332275,1086.317993 415.851471,1085.791382 
	C391.692261,1085.645996 372.743683,1073.896851 359.771576,1053.349365 
	C349.366608,1036.868042 347.898041,1018.679443 349.741180,999.711670 
	C351.480347,981.813538 358.709808,966.799194 371.821594,954.828186 
	C383.952393,943.752747 398.401031,937.114990 415.036377,937.074036 
	C485.523041,936.900330 556.010376,937.011719 626.497498,936.986023 
	C635.884583,936.982605 634.943665,937.873291 634.987549,928.284119 
	C635.039429,916.953125 634.739136,905.613098 635.113525,894.294250 
	C635.284851,889.114136 633.501953,887.898071 628.571045,887.905640 
	C542.420349,888.038513 456.269379,888.013611 370.118500,887.982727 
	C359.929993,887.979065 361.072937,889.070496 361.015259,878.900269 
	C360.950043,867.402771 361.227753,855.898010 360.897003,844.409729 
	C360.753479,839.425415 362.186493,837.856140 367.313232,837.890015 
	C400.472382,838.108765 433.633698,838.000427 466.794281,838.000183 
	C516.618469,837.999756 566.445190,838.302551 616.266052,837.894043 
	C649.712708,837.619812 680.002014,863.944641 684.031006,895.641724 
	C684.947937,902.855469 684.896606,910.214661 684.960510,917.509766 
	C685.091919,932.505493 685.000000,947.503113 685.000000,963.000000 
M510.500000,1036.000000 
	C549.972900,1035.999023 589.446228,1035.921387 628.918335,1036.095703 
	C633.759583,1036.117065 635.214355,1034.651123 635.096558,1029.865112 
	C634.797424,1017.714172 634.776550,1005.544861 635.104370,993.395386 
	C635.239258,988.395569 633.785278,986.844666 628.678101,986.889893 
	C601.698669,987.128967 574.716003,987.000061 547.734497,987.000122 
	C500.600128,987.000366 453.465424,987.076721 406.331787,986.894104 
	C401.245483,986.874451 399.755127,988.367493 399.894592,993.385071 
	C400.227692,1005.367554 399.989563,1017.365662 400.006348,1029.357422 
	C400.015594,1035.959595 400.037720,1035.990845 406.570496,1035.993164 
	C440.880341,1036.004883 475.190155,1035.999512 510.500000,1036.000000 
z"/>
<path fill="#444444" opacity="1.000000" stroke="none" 
	d="
M1140.000000,970.000000 
	C1140.000366,989.997498 1139.994019,1009.494934 1140.004761,1028.992432 
	C1140.008667,1035.977295 1140.027588,1035.995972 1147.212036,1035.996338 
	C1233.534302,1036.001221 1319.856445,1035.999023 1406.178711,1036.001953 
	C1413.987915,1036.002197 1413.994507,1036.012939 1413.998169,1043.898071 
	C1414.003784,1055.729858 1414.011475,1067.561768 1413.993530,1079.393555 
	C1413.983521,1085.961060 1413.960815,1085.992920 1407.386719,1085.993652 
	C1334.062866,1086.001831 1260.738892,1085.999390 1187.415039,1086.000000 
	C1177.583008,1086.000000 1167.750977,1086.004150 1157.918945,1085.999268 
	C1124.212402,1085.982422 1094.400879,1059.701782 1090.109375,1026.183350 
	C1089.899048,1024.540771 1090.003784,1022.854675 1090.003784,1021.188843 
	C1089.999634,933.033569 1089.999268,844.878235 1090.002075,756.722961 
	C1090.002441,749.017822 1090.014160,749.007812 1097.496460,749.002808 
	C1109.494873,748.994812 1121.493408,748.988037 1133.491821,749.007263 
	C1139.964600,749.017639 1139.990601,749.042542 1139.993896,755.711548 
	C1140.006836,781.041626 1140.139893,806.373108 1139.886963,831.700623 
	C1139.835571,836.854065 1141.478027,838.102905 1146.421631,838.095215 
	C1232.410400,837.960999 1318.399414,837.998962 1404.388306,838.001587 
	C1406.387939,838.001648 1408.538574,837.577087 1410.339111,838.182678 
	C1411.768433,838.663269 1413.784058,840.401306 1413.805054,841.611145 
	C1414.050903,855.771606 1413.937988,869.937866 1413.998901,884.102234 
	C1414.010620,886.825989 1412.960693,888.118530 1410.175903,887.988586 
	C1408.347290,887.903320 1406.510742,887.998718 1404.677734,887.998779 
	C1319.022095,888.000305 1233.366455,887.999268 1147.710815,888.002319 
	C1140.017456,888.002563 1140.004761,888.014404 1140.002808,895.508606 
	C1139.996338,920.172424 1140.000122,944.836182 1140.000000,970.000000 
z"/>
<path fill="#444444" opacity="1.000000" stroke="none" 
	d="
M1564.278320,952.743896 
	C1551.250854,942.469666 1538.496948,932.425598 1525.718262,922.413269 
	C1506.032959,906.989380 1486.335083,891.581543 1466.634155,876.177917 
	C1452.540649,865.158508 1438.431885,854.158447 1424.333008,843.145996 
	C1422.785156,841.937012 1421.256592,840.703308 1418.683105,838.657410 
	C1421.133301,838.343140 1422.447754,838.029053 1423.762573,838.027466 
	C1448.093628,837.998474 1472.428711,837.791443 1496.751587,838.238770 
	C1500.415405,838.306152 1504.468872,840.887146 1507.583496,843.288940 
	C1528.960571,859.772705 1550.145142,876.506042 1571.371704,893.184509 
	C1584.396729,903.418823 1597.609375,913.433655 1610.261719,924.111145 
	C1614.310303,927.527710 1616.934937,932.682556 1620.009521,937.179993 
	C1621.468506,939.314453 1622.453491,941.773132 1623.637939,944.055420 
	C1624.366577,943.741089 1624.831055,943.688171 1624.909180,943.485962 
	C1630.055664,930.162476 1640.619507,921.657959 1651.427002,913.260803 
	C1671.435791,897.714417 1691.287231,881.965576 1711.217896,866.318665 
	C1722.292847,857.624207 1733.351685,848.907898 1744.536133,840.356201 
	C1746.139526,839.130249 1748.405762,838.128906 1750.371704,838.117249 
	C1775.368530,837.968933 1800.366333,838.017151 1825.364014,838.038818 
	C1826.129761,838.039490 1826.895142,838.294067 1829.412598,838.742126 
	C1776.626099,879.963562 1724.951904,920.316467 1672.831421,961.017700 
	C1725.928589,1002.413696 1778.505371,1043.403931 1831.082031,1084.394287 
	C1830.984375,1084.812012 1830.886597,1085.229736 1830.788818,1085.647583 
	C1829.123047,1085.764771 1827.457275,1085.982422 1825.791382,1085.984009 
	C1802.293579,1086.006348 1778.793945,1085.851318 1755.299316,1086.125244 
	C1750.658569,1086.179199 1747.474976,1084.266602 1744.177734,1081.674927 
	C1720.088501,1062.739868 1695.930908,1043.891479 1671.874756,1024.914795 
	C1660.691284,1016.092712 1649.249512,1007.520935 1638.769409,997.914490 
	C1632.830444,992.470764 1628.600830,985.162476 1623.775146,978.919006 
	C1620.753052,983.406982 1617.789795,989.252930 1613.486328,993.842346 
	C1607.760254,999.948608 1601.214600,1005.359253 1594.628784,1010.573181 
	C1572.035156,1028.460205 1549.279785,1046.143311 1526.565796,1063.878174 
	C1517.819458,1070.707153 1509.050781,1077.508789 1500.205688,1084.208740 
	C1498.980591,1085.136719 1497.257690,1085.899536 1495.762207,1085.905151 
	C1470.265137,1086.002075 1444.767578,1085.969849 1419.270142,1085.945190 
	C1418.650757,1085.944580 1418.031494,1085.703003 1416.067139,1085.293701 
	C1469.293579,1043.689331 1521.709473,1002.718689 1575.012207,961.054688 
	C1570.966797,957.938416 1567.753784,955.463379 1564.278320,952.743896 
z"/>
<path fill="#000000" opacity="1.000000" stroke="none" 
	d="
M780.245728,1035.992432 
	C775.993530,1036.461548 774.947327,1034.650635 774.953918,1031.054810 
	C775.038269,985.075562 775.044983,939.096008 774.943665,893.116760 
	C774.935059,889.223877 776.183533,887.938538 780.100708,887.943481 
	C851.402100,888.033142 922.703613,888.037537 994.004883,887.935669 
	C998.085999,887.929810 999.054260,889.487915 999.047363,893.222473 
	C998.963135,939.035156 998.909241,984.848389 999.106018,1030.660400 
	C999.128906,1035.997314 996.493774,1036.040161 992.622498,1036.037109 
	C921.987366,1035.982666 851.352295,1035.996460 780.245728,1035.992432 
z"/>
<path fill="#000000" opacity="1.000000" stroke="none" 
	d="
M1914.410400,812.126709 
	C1910.571167,827.620239 1900.533569,833.537964 1885.404907,833.920349 
	C1880.138062,834.053528 1874.737915,833.844299 1869.593262,832.816772 
	C1860.105103,830.921753 1853.456543,825.097656 1850.527100,815.803650 
	C1847.594360,806.499634 1847.207642,797.054077 1849.710815,787.425720 
	C1852.564941,776.447144 1859.519287,770.009766 1870.252319,767.444580 
	C1878.941284,765.367798 1887.668457,765.608093 1896.241577,768.211487 
	C1907.535278,771.641052 1913.425903,779.901428 1914.768188,791.079163 
	C1915.583008,797.865173 1914.710938,804.853760 1914.410400,812.126709 
M1869.000000,802.498108 
	C1869.013184,807.158997 1868.817139,811.836365 1869.181641,816.469604 
	C1869.276611,817.676453 1871.119507,818.745789 1872.159546,819.878357 
	C1873.090942,818.807129 1874.531128,817.862183 1874.835693,816.635315 
	C1875.303711,814.749390 1874.744507,812.625977 1875.088623,810.686340 
	C1875.366577,809.119690 1876.551392,806.334900 1876.960938,806.400940 
	C1879.136475,806.752197 1881.742554,807.303528 1883.167480,808.780945 
	C1885.421753,811.118591 1886.929199,814.203125 1888.620850,817.049866 
	C1890.625000,820.422485 1893.265991,820.600037 1896.992798,819.018372 
	C1894.477173,814.573669 1892.162598,810.484070 1889.877563,806.446777 
	C1895.827026,802.435486 1898.188843,796.487610 1896.792480,789.925720 
	C1895.389771,783.333557 1892.659912,781.117615 1885.678467,781.016907 
	C1881.850464,780.961670 1878.011230,781.180237 1874.195312,780.959045 
	C1870.412964,780.739807 1868.721069,781.966919 1868.940918,786.021606 
	C1869.219849,791.166687 1869.003052,796.338745 1869.000000,802.498108 
z"/>
<path fill="#000000" opacity="1.000000" stroke="none" 
	d="
M510.000000,1036.000000 
	C475.190155,1035.999512 440.880341,1036.004883 406.570496,1035.993164 
	C400.037720,1035.990845 400.015594,1035.959595 400.006348,1029.357422 
	C399.989563,1017.365662 400.227692,1005.367554 399.894592,993.385071 
	C399.755127,988.367493 401.245483,986.874451 406.331787,986.894104 
	C453.465424,987.076721 500.600128,987.000366 547.734497,987.000122 
	C574.716003,987.000061 601.698669,987.128967 628.678101,986.889893 
	C633.785278,986.844666 635.239258,988.395569 635.104370,993.395386 
	C634.776550,1005.544861 634.797424,1017.714172 635.096558,1029.865112 
	C635.214355,1034.651123 633.759583,1036.117065 628.918335,1036.095703 
	C589.446228,1035.921387 549.972900,1035.999023 510.000000,1036.000000 
z"/>
<path fill="#444444" opacity="1.000000" stroke="none" 
	d="
M1869.000000,801.998657 
	C1869.003052,796.338745 1869.219849,791.166687 1868.940918,786.021606 
	C1868.721069,781.966919 1870.412964,780.739807 1874.195312,780.959045 
	C1878.011230,781.180237 1881.850464,780.961670 1885.678467,781.016907 
	C1892.659912,781.117615 1895.389771,783.333557 1896.792480,789.925720 
	C1898.188843,796.487610 1895.827026,802.435486 1889.877563,806.446777 
	C1892.162598,810.484070 1894.477173,814.573669 1896.992798,819.018372 
	C1893.265991,820.600037 1890.625000,820.422485 1888.620850,817.049866 
	C1886.929199,814.203125 1885.421753,811.118591 1883.167480,808.780945 
	C1881.742554,807.303528 1879.136475,806.752197 1876.960938,806.400940 
	C1876.551392,806.334900 1875.366577,809.119690 1875.088623,810.686340 
	C1874.744507,812.625977 1875.303711,814.749390 1874.835693,816.635315 
	C1874.531128,817.862183 1873.090942,818.807129 1872.159546,819.878296 
	C1871.119507,818.745789 1869.276611,817.676453 1869.181641,816.469604 
	C1868.817139,811.836365 1869.013184,807.158997 1869.000000,801.998657 
M1877.782104,786.079346 
	C1875.259644,787.520996 1873.262939,794.673523 1875.434937,798.626160 
	C1876.343384,800.279358 1880.301758,800.739685 1882.913330,800.857300 
	C1886.555908,801.021423 1889.740967,799.926758 1890.007446,795.224548 
	C1890.344604,789.277527 1889.221069,787.269653 1884.093750,786.263489 
	C1882.338013,785.919006 1880.480103,786.093994 1877.782104,786.079346 
z"/>
<path fill="#000000" opacity="1.000000" stroke="none" 
	d="
M1878.225586,786.055481 
	C1880.480103,786.093994 1882.338013,785.919006 1884.093750,786.263489 
	C1889.221069,787.269653 1890.344604,789.277527 1890.007446,795.224548 
	C1889.740967,799.926758 1886.555908,801.021423 1882.913330,800.857300 
	C1880.301758,800.739685 1876.343384,800.279358 1875.434937,798.626160 
	C1873.262939,794.673523 1875.259644,787.520996 1878.225586,786.055481 
z"/>
</svg>