<?xml version="1.0" encoding="utf-8"?>
<!-- Generator: Adobe Illustrator 24.1.0, SVG Export Plug-In . SVG Version: 6.00 Build 0)  -->
<svg version="1.1" id="Layer_1" xmlns="http://www.w3.org/2000/svg" xmlns:xlink="http://www.w3.org/1999/xlink" x="0px" y="0px"
	 viewBox="0 0 4000 811.92" style="enable-background:new 0 0 4000 811.92;" xml:space="preserve">
<style type="text/css">
	.st0{fill:#87888F;}
	.st1{fill:#1E1E1E;}
	.st2{fill:#E8008A;}
</style>
<g>
	<g>
		<g>
			<path class="st0" d="M3917.05,463.26c-0.65,0-1.3-0.59-1.3-1.24v-3.46c0-0.71,0.65-1.3,1.3-1.3h28.15c0.65,0,1.3,0.59,1.3,1.3
				v3.46c0,0.65-0.65,1.24-1.3,1.24h-10.88v30.37c0,0.65-0.65,1.37-1.3,1.37h-3.78c-0.65,0-1.3-0.72-1.3-1.37v-30.37H3917.05z"/>
			<path class="st0" d="M3979.6,488.09c-0.52,0-0.78-0.26-0.98-0.52l-12.25-19.62v25.68c0,0.65-0.65,1.37-1.3,1.37h-3.78
				c-0.65,0-1.3-0.72-1.3-1.37v-35c0-0.65,0.65-1.37,1.3-1.37h5.34c0.39,0,0.78,0.26,0.98,0.59l12.38,19.81l12.38-19.81
				c0.19-0.33,0.59-0.59,0.98-0.59h5.34c0.65,0,1.3,0.72,1.3,1.37v35c0,0.65-0.65,1.37-1.3,1.37h-3.78c-0.65,0-1.3-0.72-1.3-1.37
				v-25.68l-12.25,19.62c-0.2,0.26-0.46,0.52-0.98,0.52H3979.6z"/>
		</g>
		<g>
			<path class="st1" d="M1268.71,135.76c-19.87,0-58.77,9.11-76.16,33.94c-0.83-14.9-13.24-24.83-28.14-24.83h-76.99
				c-15.73,0-28.14,13.24-28.14,28.97v293.04c0,15.73,12.42,28.97,28.14,28.97h76.99c15.73,0,28.14-13.25,28.14-28.97V309.6
				c0-12.41,7.45-49.67,40.56-49.67c33.94,0,33.94,31.45,33.94,43.04v163.9c0,15.73,12.42,28.97,28.14,28.97h76.99
				c15.73,0,28.14-12.42,28.14-28.15V274.83C1400.32,265.72,1391.22,135.76,1268.71,135.76z"/>
			<path class="st1" d="M1786.07,0h-76.99c-15.73,0-28.15,13.25-28.15,28.97v143.21c-25.66-36.42-79.47-36.42-86.09-36.42
				c-99.34,0-169.7,82.78-169.7,184.6c0,101.82,70.36,184.6,169.7,184.6c6.62,0,60.43,0,86.09-36.42
				c0.83,14.9,13.24,27.32,28.15,27.32h76.99c15.73,0,28.14-13.25,28.14-28.97V28.97C1814.22,13.25,1801.8,0,1786.07,0z
				 M1618.86,380.79c-33.11,0-60.43-25.66-60.43-60.43c0-34.77,27.32-60.43,60.43-60.43c34.77,0,62.08,25.66,62.08,60.43
				C1680.94,355.12,1653.63,380.79,1618.86,380.79z"/>
			<path class="st1" d="M2037.71,135.76c-105.96,0-190.39,82.78-190.39,184.6c0,101.82,84.43,184.6,190.39,184.6
				c49.67,0,94.37-14.9,121.69-27.32c9.11-4.96,15.73-14.9,15.73-25.66c0-5.79-1.65-11.59-4.97-16.56l-31.46-43.87
				c-5.79-7.45-14.07-10.76-24-10.76c-2.48,0-4.97,0-7.45,0.83c-28.14,8.28-59.6,9.93-71.19,9.93c-19.87,0-41.39-9.11-48.84-30.63
				h198.67c15.73,0,28.14-13.24,28.14-28.97v-8.28C2214.03,203.64,2129.59,135.76,2037.71,135.76z M1987.21,279.79
				c7.45-25.66,26.49-34.77,48.84-34.77s41.39,9.11,48.84,34.77H1987.21z"/>
			<path class="st1" d="M2464.85,140.72c-8.28-0.83-15.73-0.83-24.01-0.83c-3.31,0-37.25,0-67.05,32.29
				c-0.83-14.9-13.24-27.32-28.14-27.32h-76.99c-15.73,0-28.14,13.24-28.14,28.97v293.04c0,15.73,12.42,28.97,28.14,28.97h76.99
				c15.73,0,28.14-13.25,28.14-28.97v-125c0-48.01,20.7-77.81,73.68-77.81c0,0,6.62,0,17.38,0.83c15.73,0,28.14-13.24,28.14-28.97
				V169.7C2492.99,153.97,2480.57,140.72,2464.85,140.72z"/>
			<path class="st1" d="M2617.97,0h-76.99c-15.73,0-28.14,13.25-28.14,28.97v437.9c0,15.73,12.42,28.97,28.14,28.97h76.99
				c15.73,0,28.14-13.25,28.14-28.97V28.97C2646.12,13.25,2633.7,0,2617.97,0z"/>
			<path class="st1" d="M3040.14,144.87h-76.98c-14.9,0-27.32,12.41-28.15,27.32c-25.66-36.42-79.46-36.42-86.09-36.42
				c-99.33,0-169.69,82.78-169.69,184.6c0,101.82,70.36,184.6,169.69,184.6c6.63,0,60.43,0,86.09-36.42
				c0.83,14.9,13.25,27.32,28.15,27.32h76.98c15.73,0,28.15-13.25,28.15-28.97V173.84C3068.28,158.11,3055.86,144.87,3040.14,144.87
				z M2872.92,380.79c-33.11,0-60.43-25.66-60.43-60.43c0-34.77,27.32-60.43,60.43-60.43c34.77,0,62.08,25.66,62.08,60.43
				C2935,355.12,2907.69,380.79,2872.92,380.79z"/>
			<path class="st1" d="M3327.37,135.76c-19.87,0-58.78,9.11-76.16,33.94c-0.83-14.9-13.24-24.83-28.14-24.83h-76.99
				c-15.73,0-28.14,13.24-28.14,28.97v293.04c0,15.73,12.41,28.97,28.14,28.97h76.99c15.73,0,28.14-13.25,28.14-28.97V309.6
				c0-12.41,7.45-49.67,40.57-49.67c33.94,0,33.94,31.45,33.94,43.04v163.9c0,15.73,12.41,28.97,28.14,28.97h76.99
				c15.73,0,28.14-12.42,28.14-28.15V274.83C3458.98,265.72,3449.88,135.76,3327.37,135.76z"/>
			<path class="st1" d="M3844.73,0h-76.98c-15.73,0-28.15,13.25-28.15,28.97v143.21c-25.66-36.42-79.47-36.42-86.09-36.42
				c-99.34,0-169.7,82.78-169.7,184.6c0,101.82,70.36,184.6,169.7,184.6c6.62,0,60.43,0,86.09-36.42
				c0.83,14.9,13.24,27.32,28.15,27.32h76.98c15.73,0,28.15-13.25,28.15-28.97V28.97C3872.88,13.25,3860.46,0,3844.73,0z
				 M3677.52,380.79c-33.11,0-60.43-25.66-60.43-60.43c0-34.77,27.32-60.43,60.43-60.43c34.77,0,62.08,25.66,62.08,60.43
				C3739.6,355.12,3712.29,380.79,3677.52,380.79z"/>
			<ellipse class="st2" cx="834.27" cy="320.83" rx="192.17" ry="184.86"/>
		</g>
		<g>
			<path class="st1" d="M3051.79,779.3c3.17,0,6.33,2.85,6.33,6.02v16.78c0,3.48-3.17,6.33-6.33,6.33h-110.2
				c-3.17,0-6.33-2.85-6.33-6.33V631.42c0-3.48,3.17-6.33,6.33-6.33h110.2c3.17,0,6.33,2.85,6.33,6.33v16.78
				c0,3.17-3.17,6.02-6.33,6.02h-85.5v50.03h78.54c3.17,0,6.33,2.85,6.33,6.33v16.78c0,3.17-3.17,6.02-6.33,6.02h-78.54v45.92
				H3051.79z"/>
			<path class="st1" d="M3117.65,678.92v122.87c0,3.17-3.17,6.65-6.33,6.65h-18.37c-3.17,0-6.33-3.48-6.33-6.65V631.73
				c0-3.17,3.17-6.65,6.33-6.65h20.9c1.9,0,3.8,1.27,4.75,2.85l95.95,126.67V631.73c0-3.17,3.17-6.65,6.33-6.65h18.37
				c3.17,0,6.33,3.48,6.33,6.65v170.05c0,3.17-3.17,6.65-6.33,6.65h-20.27c-1.9,0-3.8-1.27-4.75-2.85L3117.65,678.92z"/>
			<path class="st1" d="M3454.58,661.5c0,2.53-0.95,4.12-2.85,5.38l-12.98,9.18c-0.95,0.63-2.85,1.58-3.8,1.58
				c-1.58,0-3.17-1.27-4.12-2.21c-13.93-17.1-34.83-24.38-57.64-24.38c-36.42,0-66.18,28.5-66.18,65.87
				c0,36.1,29.77,65.87,66.18,65.87c54.47,0,59.54-48.45,59.54-48.45h-38.32c-3.17,0-6.33-2.85-6.33-6.02v-16.15
				c0-3.48,3.17-6.33,6.33-6.33h63.65c3.17,0,6.33,2.85,6.33,6.33v23.12c-12.67,73.78-82.65,76.63-91.2,76.63
				c-54.47,0-97.22-42.43-97.22-95c0-52.57,41.8-95,97.22-95c42.75,0,67.77,20.9,79.17,34.52
				C3453.63,657.7,3454.58,659.92,3454.58,661.5z"/>
			<path class="st1" d="M3523.92,801.79c0,3.17-3.17,6.65-6.33,6.65h-18.37c-3.17,0-6.33-3.48-6.33-6.65V631.73
				c0-3.17,3.17-6.65,6.33-6.65h18.37c3.17,0,6.33,3.48,6.33,6.65V801.79z"/>
			<path class="st1" d="M3588.52,678.92v122.87c0,3.17-3.17,6.65-6.33,6.65h-18.37c-3.17,0-6.33-3.48-6.33-6.65V631.73
				c0-3.17,3.17-6.65,6.33-6.65h20.9c1.9,0,3.8,1.27,4.75,2.85l95.95,126.67V631.73c0-3.17,3.17-6.65,6.33-6.65h18.37
				c3.17,0,6.33,3.48,6.33,6.65v170.05c0,3.17-3.17,6.65-6.33,6.65h-20.27c-1.9,0-3.8-1.27-4.75-2.85L3588.52,678.92z"/>
			<path class="st1" d="M3866.54,779.3c3.17,0,6.33,2.85,6.33,6.02v16.78c0,3.48-3.17,6.33-6.33,6.33h-110.2
				c-3.17,0-6.33-2.85-6.33-6.33V631.42c0-3.48,3.17-6.33,6.33-6.33h110.2c3.17,0,6.33,2.85,6.33,6.33v16.78
				c0,3.17-3.17,6.02-6.33,6.02h-85.5v50.03h78.53c3.17,0,6.33,2.85,6.33,6.33v16.78c0,3.17-3.17,6.02-6.33,6.02h-78.53v45.92
				H3866.54z"/>
		</g>
	</g>
	<path class="st1" d="M655.23,18.03h-89.4c-10.76,0-20.69,5.8-24.01,16.56l-74.14,281.45L400.63,37.9
		c-4.14-11.59-14.07-19.87-26.49-19.87h-81.12c-12.42,0-22.35,8.28-26.49,19.87l-67.05,278.14L140.7,34.59
		c-3.31-10.76-13.24-16.56-24.01-16.56h-89.4c-14.48,0-26.61,12.51-27.29,26.89c-0.04,0.83,0.07,1.67,0.28,2.47l109.79,430.07
		c4.14,11.59,14.9,19.87,28.14,19.87h115.89c13.24,0,24-8.28,28.15-19.87l51.32-193.7l51.32,193.7
		c4.14,11.59,14.9,19.87,28.15,19.87h115.89c13.24,0,24.01-8.28,28.14-19.87L682.54,46.18C682.55,31.28,670.13,18.03,655.23,18.03z"
		/>
</g>
</svg>
