<svg xmlns="http://www.w3.org/2000/svg" viewBox="0 0 845 261"><defs><style>.cls-1{fill:#fff;}</style></defs><g id="logo"><path class="cls-1" d="M151.43,46.35a86,86,0,0,0-57,5.46h0a86.9,86.9,0,0,0-14.79,8.77l0,0a90,90,0,0,0-33.19,47.89,92.69,92.69,0,0,0-.06,50.39c.09.35.19.7.29,1.05A90.13,90.13,0,0,0,78.28,206a86.14,86.14,0,0,0,72.38,15.46c.35-.08.7-.17,1-.27,38.36-9.63,66.79-45.11,66.79-87.39S189.91,55.89,151.43,46.35ZM130.7,189V160.4c-13.78,0-24.94-11.44-24.94-25.57s11.16-25.57,24.94-25.57V80.63c29.2,0,52.87,24.27,52.87,54.2S159.9,189,130.7,189Z"/><path class="cls-1" d="M130.7,108.24v51.14c13.77,0,24.94-11.45,24.94-25.57S144.47,108.24,130.7,108.24Z"/><path class="cls-1" d="M287.59,177.12V90.5h17.52v71.86h46v14.76Z"/><path class="cls-1" d="M358.82,90.5,381,131.25,403.63,90.5h18.92L389.8,146.86v30.26H372.4v-30.5L339.77,90.5Z"/><path class="cls-1" d="M450,121.49v55.63H432.45V90.5h14L493,147.6v-57h17.52v86.5h-14.6Z"/><path class="cls-1" d="M538.72,90.5l22.34,32,22.22-32h19.05l-31.24,43.92,30.22,42.7h-19l-21.2-30.74-21.33,30.74H520.56l30.22-42.7L519.55,90.5Z"/><path class="cls-1" d="M607,151V136.25h38.47V151Z"/><path class="cls-1" d="M662.12,177.12V90.5H702a26.94,26.94,0,0,1,11.49,2.44,29.06,29.06,0,0,1,9.14,6.58,30.45,30.45,0,0,1,6,9.28,27.38,27.38,0,0,1,2.09,10.49,28.87,28.87,0,0,1-2,10.55,25.93,25.93,0,0,1-14.29,14.71L735,177.12H715.7l-18.53-29H679.64v29Zm17.52-43.8h22a9.52,9.52,0,0,0,5.84-1.89,13.4,13.4,0,0,0,4.06-5.06,16.12,16.12,0,0,0,1.53-7.08,14.33,14.33,0,0,0-6.29-12.2,10.4,10.4,0,0,0-5.9-1.83H679.64Z"/></g></svg>