<svg xmlns="http://www.w3.org/2000/svg" viewBox="0 0 550 586"><defs><style>.cls-1{fill:#fff;}</style></defs><g id="logo"><path class="cls-1" d="M306.36,39.66A167.52,167.52,0,0,0,195.49,50.3h0A169.22,169.22,0,0,0,166.7,67.36l-.08,0a175.2,175.2,0,0,0-64.57,93.18,180.17,180.17,0,0,0-.14,98.06c.19.68.39,1.36.58,2A175.35,175.35,0,0,0,164,350.36a168.57,168.57,0,0,0,34.55,20.44,167.5,167.5,0,0,0,106.31,9.64c.68-.16,1.36-.32,2-.51,74.64-18.75,130-87.79,130-170.07C436.86,127.37,381.24,58.23,306.36,39.66ZM266,317.33V261.61c-26.81,0-48.53-22.27-48.53-49.76S239.21,162.1,266,162.1V106.37c56.82,0,102.89,47.23,102.89,105.48S322.84,317.33,266,317.33Z"/><path class="cls-1" d="M266,160.11v99.51c26.81,0,48.53-22.28,48.53-49.76S292.83,160.11,266,160.11Z"/><path class="cls-1" d="M42.32,548V461.41H59.84v71.86h46V548Z"/><path class="cls-1" d="M113.54,461.41l22.22,40.75,22.6-40.75h18.92l-32.76,56.37V548H127.13v-30.5L94.5,461.41Z"/><path class="cls-1" d="M204.7,492.4V548H187.18V461.41h14l46.6,57.1v-57h17.52V548h-14.6Z"/><path class="cls-1" d="M293.44,461.41l22.35,32,22.22-32h19l-31.23,43.93L356,548H337l-21.2-30.75L294.46,548H275.29l30.22-42.7-31.24-43.93Z"/><path class="cls-1" d="M361.75,521.93V507.17h38.47v14.76Z"/><path class="cls-1" d="M416.85,548V461.41h39.87a27.15,27.15,0,0,1,11.49,2.44,29.25,29.25,0,0,1,9.14,6.59,30.45,30.45,0,0,1,6,9.28,27.57,27.57,0,0,1,2.09,10.49,28.88,28.88,0,0,1-2,10.55,25.89,25.89,0,0,1-14.28,14.7L489.73,548h-19.3l-18.54-29H434.37v29Zm17.52-43.8h22a9.55,9.55,0,0,0,5.85-1.89,13.45,13.45,0,0,0,4.06-5.07,16.18,16.18,0,0,0,1.52-7.07,14.35,14.35,0,0,0-6.28-12.2,10.41,10.41,0,0,0-5.91-1.83h-21.2Z"/></g></svg>