<svg xmlns="http://www.w3.org/2000/svg" viewBox="0 0 840 215"><defs><style>.cls-1{fill:#333;}</style></defs><g id="logo"><path class="cls-1" d="M136.43,21.35a86,86,0,0,0-57,5.46h0a86.9,86.9,0,0,0-14.79,8.77l0,0A90,90,0,0,0,31.43,83.49a92.69,92.69,0,0,0-.06,50.39c.09.35.19.7.29,1.05A90.13,90.13,0,0,0,63.28,181a86.14,86.14,0,0,0,72.38,15.46c.35-.08.7-.17,1-.27,38.36-9.63,66.79-45.11,66.79-87.39S174.91,30.89,136.43,21.35ZM115.7,164V135.4c-13.78,0-24.94-11.44-24.94-25.57s11.16-25.57,24.94-25.57V55.63c29.2,0,52.87,24.27,52.87,54.2S144.9,164,115.7,164Z"/><path class="cls-1" d="M115.7,83.24v51.14c13.77,0,24.94-11.45,24.94-25.57S129.47,83.24,115.7,83.24Z"/><path class="cls-1" d="M272.59,152.12V65.5h17.52v71.86h46v14.76Z"/><path class="cls-1" d="M343.82,65.5,366,106.25,388.63,65.5h18.92L374.8,121.86v30.26H357.4v-30.5L324.77,65.5Z"/><path class="cls-1" d="M435,96.49v55.63H417.45V65.5h14L478,122.6v-57h17.52v86.5h-14.6Z"/><path class="cls-1" d="M523.72,65.5l22.34,32,22.22-32h19.05l-31.24,43.92,30.22,42.7h-19l-21.2-30.74-21.33,30.74H505.56l30.22-42.7L504.55,65.5Z"/><path class="cls-1" d="M592,126V111.25h38.47V126Z"/><path class="cls-1" d="M647.12,152.12V65.5H687a26.94,26.94,0,0,1,11.49,2.44,29.06,29.06,0,0,1,9.14,6.58,30.45,30.45,0,0,1,6,9.28,27.38,27.38,0,0,1,2.09,10.49,28.87,28.87,0,0,1-2,10.55,25.93,25.93,0,0,1-14.29,14.71L720,152.12H700.7l-18.53-29H664.64v29Zm17.52-43.8h22a9.52,9.52,0,0,0,5.84-1.89,13.4,13.4,0,0,0,4.06-5.06A16.12,16.12,0,0,0,698,94.29a14.33,14.33,0,0,0-6.29-12.2,10.4,10.4,0,0,0-5.9-1.83H664.64Z"/></g></svg>