<svg xmlns="http://www.w3.org/2000/svg" viewBox="0 0 522 594"><g id="logo"><path d="M298.36,47.66A167.52,167.52,0,0,0,187.49,58.3h0A169.22,169.22,0,0,0,158.7,75.36l-.08,0a175.2,175.2,0,0,0-64.57,93.18,180.17,180.17,0,0,0-.14,98.06c.19.68.39,1.36.58,2A175.35,175.35,0,0,0,156,358.36a168.57,168.57,0,0,0,34.55,20.44,167.5,167.5,0,0,0,106.31,9.64c.68-.16,1.36-.32,2-.51,74.64-18.75,130-87.79,130-170.07C428.86,135.37,373.24,66.23,298.36,47.66ZM258,325.33V269.61c-26.81,0-48.53-22.27-48.53-49.76S231.21,170.1,258,170.1V114.37c56.82,0,102.89,47.23,102.89,105.48S314.84,325.33,258,325.33Z"/><path d="M258,168.11v99.51c26.81,0,48.53-22.28,48.53-49.76S284.83,168.11,258,168.11Z"/><path d="M34.32,556V469.41H51.84v71.86h46V556Z"/><path d="M105.54,469.41l22.22,40.75,22.6-40.75h18.92l-32.76,56.37V556H119.13v-30.5L86.5,469.41Z"/><path d="M196.7,500.4V556H179.18V469.41h14l46.6,57.1v-57h17.52V556h-14.6Z"/><path d="M285.44,469.41l22.35,32,22.22-32h19l-31.23,43.93L348,556H329l-21.2-30.75L286.46,556H267.29l30.22-42.7-31.24-43.93Z"/><path d="M353.75,529.93V515.17h38.47v14.76Z"/><path d="M408.85,556V469.41h39.87a27.15,27.15,0,0,1,11.49,2.44,29.25,29.25,0,0,1,9.14,6.59,30.45,30.45,0,0,1,6,9.28,27.57,27.57,0,0,1,2.09,10.49,28.88,28.88,0,0,1-2,10.55,25.89,25.89,0,0,1-14.28,14.7L481.73,556h-19.3l-18.54-29H426.37v29Zm17.52-43.8h22a9.55,9.55,0,0,0,5.85-1.89,13.45,13.45,0,0,0,4.06-5.07,16.18,16.18,0,0,0,1.52-7.07,14.35,14.35,0,0,0-6.28-12.2,10.41,10.41,0,0,0-5.91-1.83h-21.2Z"/></g></svg>