<svg xmlns="http://www.w3.org/2000/svg" viewBox="0 0 479 589"><defs><style>.cls-1{fill:#333;}</style></defs><g id="logo"><path class="cls-1" d="M281.36,42.66A167.52,167.52,0,0,0,170.49,53.3h0A169.22,169.22,0,0,0,141.7,70.36l-.08,0a175.2,175.2,0,0,0-64.57,93.18,180.17,180.17,0,0,0-.14,98.06c.19.68.39,1.36.58,2A175.35,175.35,0,0,0,139,353.36a168.57,168.57,0,0,0,34.55,20.44,167.5,167.5,0,0,0,106.31,9.64c.68-.16,1.36-.32,2-.51,74.64-18.75,130-87.79,130-170.07C411.86,130.37,356.24,61.23,281.36,42.66ZM241,320.33V264.61c-26.81,0-48.53-22.27-48.53-49.76S214.21,165.1,241,165.1V109.37c56.82,0,102.89,47.23,102.89,105.48S297.84,320.33,241,320.33Z"/><path class="cls-1" d="M241,163.11v99.51c26.81,0,48.53-22.28,48.53-49.76S267.83,163.11,241,163.11Z"/><path class="cls-1" d="M17.32,551V464.41H34.84v71.86h46V551Z"/><path class="cls-1" d="M88.54,464.41l22.22,40.75,22.6-40.75h18.92l-32.76,56.37V551H102.13v-30.5L69.5,464.41Z"/><path class="cls-1" d="M179.7,495.4V551H162.18V464.41h14l46.6,57.1v-57h17.52V551h-14.6Z"/><path class="cls-1" d="M268.44,464.41l22.35,32,22.22-32h19l-31.23,43.93L331,551H312l-21.2-30.75L269.46,551H250.29l30.22-42.7-31.24-43.93Z"/><path class="cls-1" d="M336.75,524.93V510.17h38.47v14.76Z"/><path class="cls-1" d="M391.85,551V464.41h39.87a27.15,27.15,0,0,1,11.49,2.44,29.25,29.25,0,0,1,9.14,6.59,30.45,30.45,0,0,1,6,9.28,27.57,27.57,0,0,1,2.09,10.49,28.88,28.88,0,0,1-2,10.55,25.89,25.89,0,0,1-14.28,14.7L464.73,551h-19.3l-18.54-29H409.37v29Zm17.52-43.8h22a9.55,9.55,0,0,0,5.85-1.89,13.45,13.45,0,0,0,4.06-5.07,16.18,16.18,0,0,0,1.52-7.07,14.35,14.35,0,0,0-6.28-12.2,10.41,10.41,0,0,0-5.91-1.83h-21.2Z"/></g></svg>