<svg xmlns="http://www.w3.org/2000/svg" viewBox="0 0 864 292"><g id="logo"><path d="M157.43,67.35a86,86,0,0,0-57,5.46h0a86.9,86.9,0,0,0-14.79,8.77l0,0a90,90,0,0,0-33.19,47.89,92.69,92.69,0,0,0-.06,50.39c.09.35.19.7.29,1.05A90.13,90.13,0,0,0,84.28,227a86.14,86.14,0,0,0,72.38,15.46c.35-.08.7-.17,1-.27,38.36-9.63,66.79-45.11,66.79-87.39S195.91,76.89,157.43,67.35ZM136.7,210V181.4c-13.78,0-24.94-11.44-24.94-25.57s11.16-25.57,24.94-25.57V101.63c29.2,0,52.87,24.27,52.87,54.2S165.9,210,136.7,210Z"/><path d="M136.7,129.24v51.14c13.77,0,24.94-11.45,24.94-25.57S150.47,129.24,136.7,129.24Z"/><path d="M293.59,198.12V111.5h17.52v71.86h46v14.76Z"/><path d="M364.82,111.5,387,152.25l22.59-40.75h18.92L395.8,167.86v30.26H378.4v-30.5L345.77,111.5Z"/><path d="M456,142.49v55.63H438.45V111.5h14L499,168.6v-57h17.52v86.5h-14.6Z"/><path d="M544.72,111.5l22.34,32,22.22-32h19.05l-31.24,43.92,30.22,42.7h-19l-21.2-30.74-21.33,30.74H526.56l30.22-42.7L525.55,111.5Z"/><path d="M613,172V157.25h38.47V172Z"/><path d="M668.12,198.12V111.5H708a26.94,26.94,0,0,1,11.49,2.44,29.06,29.06,0,0,1,9.14,6.58,30.45,30.45,0,0,1,6,9.28,27.38,27.38,0,0,1,2.09,10.49,28.87,28.87,0,0,1-2,10.55,25.93,25.93,0,0,1-14.29,14.71L741,198.12H721.7l-18.53-29H685.64v29Zm17.52-43.8h22a9.52,9.52,0,0,0,5.84-1.89,13.4,13.4,0,0,0,4.06-5.06,16.12,16.12,0,0,0,1.53-7.08,14.33,14.33,0,0,0-6.29-12.2,10.4,10.4,0,0,0-5.9-1.83H685.64Z"/></g></svg>