<svg width="1024" height="232" viewBox="0 0 1024 232" fill="none" xmlns="http://www.w3.org/2000/svg">
<g clip-path="url(#clip0_2526_280)">
<path d="M97.6182 57.5025C97.6182 50.3859 94.8535 44.2012 89.324 38.9484C83.962 33.6957 76.338 31.0693 66.4519 31.0693C58.0739 31.0693 51.4552 32.8484 46.596 36.4068C41.7367 39.7956 39.3071 44.4553 39.3071 50.3859C39.3071 53.4358 39.8936 56.2317 41.0665 58.7733C42.2394 61.1455 44.2501 63.3483 47.0987 65.3816C50.1148 67.2455 53.9687 68.9399 58.6604 70.4649C63.5196 71.9899 69.6356 73.4302 77.0083 74.7858C95.4399 78.1746 109.515 83.851 119.234 91.8148C128.952 99.7787 133.811 111.555 133.811 127.144V130.194C133.811 138.497 132.303 146.037 129.287 152.815C126.439 159.423 122.25 165.099 116.72 169.844C111.191 174.588 104.488 178.231 96.6129 180.773C88.7375 183.314 79.8568 184.585 69.9707 184.585C58.409 184.585 48.1878 182.976 39.3071 179.756C30.5939 176.367 23.3051 171.792 17.4404 166.031C11.5758 160.101 7.13545 153.238 4.11935 145.444C1.10326 137.48 -0.404785 128.838 -0.404785 119.519V111.894H32.7722V117.994C32.7722 128.669 35.7883 137.226 41.8205 143.665C48.0203 149.934 57.5712 153.069 70.4734 153.069C80.527 153.069 87.9835 150.866 92.8427 146.46C97.702 142.055 100.132 136.802 100.132 130.702C100.132 127.822 99.629 125.111 98.6236 122.569C97.6182 119.858 95.8588 117.486 93.3454 115.452C90.832 113.249 87.397 111.301 83.0405 109.606C78.6839 107.912 73.1544 106.472 66.4519 105.286C57.5712 103.761 49.4445 101.812 42.0718 99.4398C34.6992 96.8982 28.2481 93.594 22.7186 89.5274C17.3566 85.4607 13.1676 80.3774 10.1515 74.2774C7.13545 68.1775 5.6274 60.7219 5.6274 51.9109V50.3859C5.6274 43.0998 7.05167 36.4067 9.9002 30.3068C12.9163 24.0373 17.0215 18.6152 22.2159 14.0402C27.5779 9.46521 33.9452 5.90689 41.3178 3.36522C48.8581 0.823571 57.2361 -0.447266 66.4519 -0.447266C76.8407 -0.447266 86.0565 1.07774 94.0994 4.12773C102.142 7.00827 108.845 10.9902 114.207 16.0735C119.736 21.1568 123.841 27.0026 126.522 33.6109C129.371 40.2192 130.795 47.1664 130.795 54.4525V63.6025H97.6182V57.5025Z" fill="#4D4D4D"/>
<path d="M190.941 181.027H159.272V3.11106H190.941V75.2941H195.465C198.649 67.6691 203.34 61.8233 209.54 57.7567C215.74 53.5206 223.364 51.4025 232.412 51.4025C238.612 51.4025 244.309 52.4192 249.503 54.4525C254.698 56.4858 259.222 59.5358 263.076 63.6025C266.93 67.6691 269.946 72.9219 272.124 79.3607C274.302 85.6301 275.391 93.0857 275.391 101.727V181.027H243.722V109.352C243.722 100.372 241.544 93.3398 237.188 88.2565C232.999 83.0038 226.883 80.3774 218.84 80.3774C209.456 80.3774 202.419 83.5968 197.727 90.0357C193.203 96.3051 190.941 104.777 190.941 115.452V181.027Z" fill="#4D4D4D"/>
<path d="M388.067 162.727C384.716 170.691 380.024 176.367 373.992 179.756C367.96 182.976 360.922 184.585 352.879 184.585C345.339 184.585 338.218 183.145 331.515 180.264C324.981 177.384 319.2 173.148 314.173 167.556C309.146 161.965 305.125 155.187 302.109 147.223C299.26 139.259 297.836 130.194 297.836 120.027V115.961C297.836 105.963 299.26 96.9829 302.109 89.019C304.957 81.0552 308.811 74.2774 313.67 68.6858C318.53 63.0941 324.143 58.858 330.51 55.9775C337.045 52.9275 343.999 51.4025 351.371 51.4025C360.252 51.4025 367.373 52.9275 372.735 55.9775C378.265 59.0275 382.622 63.7719 385.805 70.2108H390.329V54.9608H421.998V142.902C421.998 147.985 424.26 150.527 428.784 150.527H433.56V181.027H411.945C406.247 181.027 401.556 179.333 397.87 175.944C394.351 172.555 392.591 168.149 392.591 162.727H388.067ZM359.917 154.085C369.133 154.085 376.505 151.035 382.035 144.935C387.564 138.666 390.329 130.194 390.329 119.519V116.469C390.329 105.794 387.564 97.4065 382.035 91.3065C376.505 85.0371 369.133 81.9024 359.917 81.9024C350.701 81.9024 343.329 85.0371 337.799 91.3065C332.27 97.4065 329.505 105.794 329.505 116.469V119.519C329.505 130.194 332.27 138.666 337.799 144.935C343.329 151.035 350.701 154.085 359.917 154.085Z" fill="#4D4D4D"/>
<path d="M486.418 231.86H454.749V54.9608H486.418V73.2608H490.942C494.293 66.3136 499.153 60.9761 505.52 57.2483C511.887 53.3511 520.014 51.4025 529.9 51.4025C537.273 51.4025 544.227 52.8428 550.761 55.7233C557.464 58.6039 563.245 62.84 568.104 68.4316C573.131 73.8538 577.068 80.5468 579.917 88.5107C582.933 96.4746 584.441 105.54 584.441 115.706V120.281C584.441 130.617 583.017 139.767 580.168 147.731C577.32 155.695 573.466 162.473 568.607 168.064C563.747 173.487 557.967 177.638 551.264 180.519C544.729 183.23 537.608 184.585 529.9 184.585C524.203 184.585 519.26 183.992 515.071 182.806C510.882 181.62 507.196 180.01 504.012 177.977C500.996 175.944 498.399 173.656 496.22 171.114C494.21 168.403 492.45 165.608 490.942 162.727H486.418V231.86ZM519.595 154.085C529.481 154.085 537.44 151.035 543.473 144.935C549.672 138.666 552.772 130.194 552.772 119.519V116.469C552.772 105.794 549.672 97.4065 543.473 91.3065C537.44 85.0371 529.481 81.9024 519.595 81.9024C509.709 81.9024 501.666 85.1218 495.466 91.5607C489.434 97.8301 486.418 106.133 486.418 116.469V119.519C486.418 129.855 489.434 138.242 495.466 144.681C501.666 150.951 509.709 154.085 519.595 154.085Z" fill="#4D4D4D"/>
<path d="M637.8 128.415C637.968 132.142 638.806 135.616 640.314 138.835C641.989 141.885 644.168 144.597 646.849 146.969C649.697 149.172 652.881 150.951 656.4 152.306C660.086 153.492 663.94 154.085 667.961 154.085C675.837 154.085 681.869 152.73 686.058 150.019C690.247 147.138 693.263 143.749 695.106 139.852L722.251 155.102C720.743 158.321 718.648 161.71 715.968 165.269C713.287 168.658 709.768 171.792 705.411 174.673C701.222 177.553 696.028 179.926 689.828 181.789C683.796 183.653 676.675 184.585 668.464 184.585C659.081 184.585 650.535 183.06 642.827 180.01C635.12 176.96 628.417 172.555 622.72 166.794C617.19 161.033 612.834 154.001 609.65 145.698C606.634 137.395 605.126 127.991 605.126 117.486V115.961C605.126 106.302 606.718 97.4912 609.902 89.5274C613.253 81.5635 617.777 74.7857 623.474 69.1941C629.171 63.6025 635.79 59.2817 643.33 56.2317C651.038 53.0122 659.248 51.4025 667.961 51.4025C678.685 51.4025 687.901 53.3511 695.609 57.2483C703.317 60.9761 709.684 65.8052 714.711 71.7358C719.738 77.4969 723.424 83.9357 725.77 91.0523C728.116 97.9995 729.289 104.777 729.289 111.386V128.415H637.8ZM667.71 80.3774C659.667 80.3774 653.132 82.4954 648.105 86.7315C643.079 90.7982 639.811 95.5426 638.303 100.965H697.117C696.112 95.0343 692.928 90.1204 687.566 86.2232C682.372 82.326 675.753 80.3774 667.71 80.3774Z" fill="#4D4D4D"/>
<path d="M782.522 90.544C782.522 94.6107 784.617 97.5759 788.806 99.4398C792.995 101.134 800.619 102.575 811.678 103.761C824.412 105.116 834.801 109.013 842.844 115.452C850.887 121.722 854.909 130.533 854.909 141.885V143.41C854.909 155.949 850.384 165.946 841.336 173.402C832.288 180.858 819.553 184.585 803.132 184.585C793.414 184.585 785.119 183.314 778.25 180.773C771.38 178.231 765.682 175.096 761.158 171.369C756.634 167.471 753.115 163.235 750.602 158.66C748.256 153.916 746.664 149.341 745.827 144.935L774.982 135.277C776.323 140.699 779.087 145.444 783.276 149.51C787.633 153.577 794.252 155.61 803.132 155.61C811.008 155.61 816.37 154.424 819.218 152.052C822.234 149.51 823.742 146.799 823.742 143.919C823.742 142.224 823.323 140.699 822.486 139.344C821.815 137.819 820.475 136.463 818.464 135.277C816.453 133.922 813.689 132.82 810.17 131.973C806.819 131.126 802.546 130.448 797.351 129.94C783.276 128.754 772.05 125.111 763.672 119.011C755.461 112.741 751.356 103.591 751.356 91.5607V90.0357C751.356 83.7663 752.696 78.2593 755.377 73.5149C758.058 68.7705 761.577 64.7886 765.934 61.5691C770.29 58.1803 775.317 55.6386 781.014 53.9442C786.711 52.2497 792.576 51.4025 798.608 51.4025C806.483 51.4025 813.27 52.4192 818.967 54.4525C824.831 56.3164 829.774 58.858 833.796 62.0775C837.817 65.1275 841.085 68.6011 843.598 72.4983C846.112 76.226 848.039 79.8691 849.379 83.4274L820.726 95.119C819.218 90.544 816.621 86.9857 812.935 84.444C809.248 81.7329 804.473 80.3774 798.608 80.3774C793.246 80.3774 789.225 81.3941 786.544 83.4274C783.863 85.2913 782.522 87.6635 782.522 90.544Z" fill="#4D4D4D"/>
<path d="M907.761 9.7168L926.325 47.1273H928.453L947.017 9.7168H957.895L937.203 51.1097V52.5579L957.895 94.1922H947.017L928.453 56.5403H926.325L907.761 94.1922H896.882L917.575 52.5579V51.1097L896.882 9.7168H907.761Z" fill="#2D2D2D" fill-opacity="0.7"/>
<path d="M1020.76 94.1922H1010.83V65.9533C1010.83 63.8615 1010.35 62.2525 1009.41 61.1261C1008.46 59.9998 1006.8 59.4366 1004.44 59.4366H978.663V94.1922H968.731V9.7168H998.292C1002.55 9.7168 1006.25 10.3604 1009.41 11.6477C1012.56 12.8545 1015.16 14.5037 1017.21 16.5955C1019.34 18.6873 1020.92 21.1411 1021.94 23.9569C1023.04 26.6923 1023.6 29.5886 1023.6 32.6458V36.2662C1023.6 39.4039 1022.73 42.5415 1020.99 45.6792C1019.34 48.8168 1016.74 51.2304 1013.19 52.9199V54.3681C1015.55 54.7703 1017.41 55.7358 1018.75 57.2644C1020.09 58.793 1020.76 60.9652 1020.76 63.781V94.1922ZM978.663 50.0236H997.109C1002.71 50.0236 1006.84 48.8168 1009.52 46.4033C1012.28 43.9092 1013.66 40.2888 1013.66 35.5421V33.3699C1013.66 29.1059 1012.28 25.6867 1009.52 23.1122C1006.84 20.4572 1002.71 19.1298 997.109 19.1298H978.663V50.0236Z" fill="#2D2D2D" fill-opacity="0.7"/>
</g>
<defs>
<clipPath id="clip0_2526_280">
<rect width="1024" height="232" fill="white"/>
</clipPath>
</defs>
</svg>
